<svg width="24" height="24" viewBox="0 0 24 24" fill="none" xmlns="http://www.w3.org/2000/svg">
<path d="M12 1.07812C8.71664 1.07812 5.76961 2.53111 3.76659 4.82812H2.95312V5.88347C1.76981 7.62914 1.07812 9.73453 1.07812 12C1.07812 14.2654 1.76981 16.3709 2.95312 18.1165V22.9219H21.0469V18.1165C22.2302 16.3709 22.9219 14.2654 22.9219 12C22.9219 9.73458 22.2302 7.62914 21.0469 5.88347V4.82812H20.2334C18.2304 2.53111 15.2834 1.07812 12 1.07812ZM12 1.92188C14.763 1.92188 17.2639 3.03094 19.0834 4.82812H4.91658C6.73612 3.03094 9.23705 1.92188 12 1.92188ZM4.84523 5.67188H11.6515C11.5215 5.74406 11.3969 5.85858 11.2831 6.01856C11.0704 6.31772 10.9219 6.7642 10.9219 7.26562C10.9219 7.76705 11.0705 8.21353 11.2831 8.51269C11.4959 8.81175 11.7461 8.95312 12 8.95312C12.2539 8.95312 12.5041 8.8118 12.7169 8.51269C12.9296 8.21353 13.0781 7.76705 13.0781 7.26562C13.0781 6.7642 12.9295 6.31772 12.7169 6.01856C12.6031 5.85858 12.4785 5.74411 12.3484 5.67188H19.1548L14.4468 8.57812H16.1519L20.1713 6.09666C20.1819 6.11128 20.1927 6.12572 20.2031 6.14034V9.42188H13.0107C12.7242 9.65269 12.3785 9.79688 12 9.79688C11.6215 9.79688 11.2758 9.65269 10.9892 9.42188H3.79688V6.14034C3.80733 6.12572 3.81811 6.11128 3.82866 6.0967L7.84809 8.57812H9.55313L4.84519 5.67188H4.84523ZM2.95312 7.55147V16.4485C2.29313 15.1072 1.92188 13.5975 1.92188 12C1.92188 10.4025 2.29313 8.8928 2.95312 7.55147ZM21.0469 7.55147C21.7069 8.8928 22.0781 10.4025 22.0781 12C22.0781 13.5975 21.7069 15.1072 21.0469 16.4485V7.55147ZM3.79688 10.4531H10.1719V21.9127C9.23781 21.7419 8.3328 21.4391 7.48406 21.0134L9.32812 18.2473V16.3685L6.53367 20.4705C5.46539 19.78 4.53691 18.8942 3.79688 17.8597V10.4531ZM13.8281 10.4531H20.2031V17.8597C19.4631 18.8942 18.5346 19.78 17.4663 20.4705L14.6719 16.3685V18.2473L16.5159 21.0134C15.6672 21.4391 14.7622 21.7419 13.8281 21.9127V10.4531ZM11.5781 15H12.4219V22.0687C12.2813 22.0747 12.1407 22.0779 12 22.0781C11.8586 22.0781 11.7181 22.0744 11.5781 22.0687V15ZM3.79688 19.206C4.88447 20.4429 6.24675 21.4323 7.78819 22.0781H3.79688V19.206ZM20.2031 19.206V22.0781H16.2118C17.7533 21.4323 19.1155 20.4429 20.2031 19.206Z" fill="white"/>
</svg>
