<svg width="24" height="24" viewBox="0 0 24 24" fill="none" xmlns="http://www.w3.org/2000/svg">
<path d="M14.5928 1.20117L13.5147 1.70067L12.1304 7.4678L14.981 2.2193L14.5929 1.20117H14.5928ZM2.79492 2.34516C3.33154 5.95158 5.06507 8.97436 7.49123 11.5209C8.15371 11.0726 8.82271 10.6123 9.49364 10.1426C8.45507 8.86223 7.71942 7.50802 7.45021 6.0982C5.84643 4.85639 4.28085 3.5962 2.79496 2.3452L2.79492 2.34516ZM21.0982 2.34666C19.649 3.56719 18.1237 4.79672 16.5614 6.01031C16.077 8.74003 13.8386 11.2638 11.0199 13.4458C7.95276 15.8202 4.14993 17.8021 0.928683 19.1367L0.928589 20.6733C5.31843 19.0733 10.095 16.8587 13.9071 13.8018C17.6119 10.8309 20.3913 7.0957 21.0982 2.3467V2.34666ZM10.0283 2.78466L9.62985 4.08839L11.5371 7.51308L11.2148 3.51417L10.0283 2.78461V2.78466ZM15.4043 6.90089C10.4714 10.6627 5.26204 14.1967 0.928683 16.683V18.1875C4.01854 16.879 7.61212 14.9761 10.4839 12.7529C12.8196 10.9448 14.6474 8.93198 15.4043 6.90089H15.4043ZM8.6279 7.00191C8.97243 7.88737 9.51993 8.76816 10.2217 9.62986C10.5512 9.39642 10.8805 9.1597 11.2104 8.92233C10.3459 8.29158 9.48248 7.65108 8.6279 7.00186V7.00191ZM16.5307 12.6431C16.082 13.0871 15.6129 13.5144 15.1289 13.9277C17.703 15.6759 20.624 17.1694 23.187 18.2475V16.7902C21.1311 15.6188 18.8697 14.2059 16.5307 12.6431ZM14.4258 14.5092C13.8797 14.9461 13.315 15.3648 12.7369 15.7676C16.0334 17.8833 19.7367 19.507 23.1869 20.7539V19.1967C20.428 18.0613 17.2291 16.4439 14.4257 14.5092H14.4258ZM11.6777 16.9483L9.51267 20.6162L9.8789 21.7222L11.1797 21.1904L11.6777 16.9482V16.9483ZM12.4204 16.9863L14.8286 21.8906L16.5381 22.3725L16.3725 20.874L12.4205 16.9863H12.4204Z" fill="white"/>
</svg>
