<svg width="24" height="24" viewBox="0 0 24 24" fill="none" xmlns="http://www.w3.org/2000/svg">
<path d="M8.73928 0.963746L8.12128 2.19961C8.44003 2.18742 8.76 2.17673 9.08081 2.16745L9.26081 1.80745H14.7393L14.916 2.16089C15.2365 2.16965 15.5562 2.18001 15.8749 2.19182L15.2607 0.963699H8.73923L8.73928 0.963746ZM11.9999 2.96728C9.85505 2.9699 7.71309 3.04068 5.65397 3.17179C5.50209 5.54273 5.26022 7.90556 5.61713 10.0073C9.80292 10.5883 14.0594 10.616 18.4029 10.0048C18.7336 8.5522 18.6428 6.03539 18.3542 3.16617C16.2929 3.03056 14.1481 2.96461 11.9999 2.96723V2.96728ZM19.2085 3.22697C19.5094 6.23259 19.6357 8.84376 19.1553 10.5029L19.0798 10.7635L18.8114 10.803C14.1802 11.484 9.64205 11.4503 5.1893 10.8031L4.89469 10.7602L4.83628 10.4682C4.37269 8.14837 4.6448 5.65017 4.80516 3.22978C4.57594 3.24637 4.34742 3.26353 4.12069 3.28167C3.71775 6.02704 3.68053 8.76403 4.11834 11.4985C9.28584 12.0651 14.5375 12.0706 19.8779 11.498C20.2764 8.78723 20.2665 6.04879 19.8771 3.28022C19.6556 3.26147 19.4325 3.24384 19.2085 3.22678L19.2085 3.22697ZM11.9984 4.32656C13.5231 4.32539 15.0484 4.45528 16.5722 4.71984L16.9219 4.78054V5.13548C16.9219 5.86457 17.0008 6.78103 16.327 7.49095C15.8624 7.98051 15.1245 8.30362 13.9219 8.45587V9.30731H10.0781V8.44237C8.9535 8.2844 8.2335 7.96542 7.76423 7.4962C7.06908 6.80123 7.07812 5.88562 7.07812 5.13562V4.77965L7.42894 4.71975C8.94975 4.46006 10.4737 4.32778 11.9983 4.32665L11.9984 4.32656ZM11.999 5.17003C10.6415 5.17106 9.2843 5.28459 7.9275 5.49797C7.93992 6.07359 8.00414 6.54309 8.36077 6.89972C8.63798 7.17693 9.15539 7.43484 10.0781 7.58325V6.21356H13.9219V7.59684C14.9235 7.45082 15.4528 7.18645 15.715 6.91012C16.0447 6.56278 16.0758 6.08972 16.0774 5.49806C14.718 5.28103 13.3583 5.169 11.9989 5.17003H11.999ZM10.9219 7.0575V8.46375H13.0781V7.0575H10.9219ZM20.7503 11.3897C20.7268 11.5596 20.7015 11.7295 20.6749 11.8992C20.6849 12.0095 20.6946 12.1198 20.7044 12.2302L22.0781 13.6037V12.5612L20.7503 11.3896V11.3897ZM3.24323 11.3953L1.92188 12.5612V13.6037L3.29616 12.2294C3.30577 12.1204 3.31519 12.0112 3.32503 11.9022C3.29606 11.7332 3.26869 11.5642 3.24323 11.3953ZM19.8667 12.3514C19.3844 12.4025 18.9028 12.4487 18.4218 12.4905V15.9637H19.1718V19.0575H18.4218V22.8363C18.9055 22.8066 19.3889 22.7747 19.8716 22.7387C20.3143 19.2695 20.1752 15.8153 19.8667 12.3514V12.3514ZM4.13658 12.3528C3.83086 15.848 3.68344 19.3172 4.12781 22.7391C4.61175 22.7761 5.09522 22.8096 5.57812 22.8396V19.0575H4.82812V15.9637H5.57812V12.4939C5.09691 12.4516 4.61639 12.4047 4.13663 12.3528L4.13658 12.3528ZM17.5781 12.5591C17.1087 12.5947 16.6399 12.6258 16.1718 12.6525V15.9637H17.5781V12.5591ZM6.42183 12.5631V15.9637H7.82808V12.6567C7.35862 12.63 6.88992 12.5987 6.42183 12.5631ZM15.3281 12.6955C13.0945 12.7973 10.8757 12.7981 8.67183 12.6991V13.6045C9.79448 13.3624 10.9125 13.2458 12.0241 13.2487C13.1322 13.2515 14.2341 13.3731 15.3281 13.6062V12.6954V12.6955ZM3.18984 13.5291L1.92188 14.797V17.4637H3.00281C3.02044 16.1519 3.09094 14.8399 3.18984 13.5291ZM20.8124 13.5313C20.9118 14.8378 20.9816 16.1483 20.9979 17.4637H22.0781V14.797L20.8124 13.5312V13.5313ZM12.0224 14.0914C10.9124 14.0885 9.79645 14.2122 8.67188 14.4689V15.9637H9.42188V16.8282C10.2203 17.0788 10.9092 17.2263 11.5781 17.2701V17.1355H12.4219V17.27C13.0908 17.2263 13.7797 17.0787 14.5781 16.8282V15.9637H15.3281V14.47C14.2303 14.2231 13.1294 14.0943 12.0224 14.0914L12.0224 14.0914ZM5.67188 16.8074V18.2137H6.70312V17.1355H7.54688V18.2137H8.57812V16.8074H5.67188ZM15.4219 16.8074V18.2137H16.4531V17.1355H17.2969V18.2137H18.3281V16.8074H15.4219ZM9.42188 17.7094V19.0575H8.67188V19.8008C10.9466 20.3101 13.1584 20.3007 15.3281 19.8029V19.0575H14.5781V17.7094C13.8126 17.9319 13.1117 18.0619 12.4219 18.0997V18.6356H11.5781V18.0996C10.8883 18.0618 10.1874 17.9318 9.42188 17.7093V17.7094ZM1.92188 18.3075V18.9637H3.00656C3.00234 18.745 2.99986 18.5262 2.99892 18.3075H1.92188ZM21.0006 18.3075C20.9993 18.5261 20.9967 18.7448 20.9921 18.9637H22.0781V18.3075H21.0006ZM6.42188 19.0575V19.9855C6.70955 20.3237 6.94791 20.4435 7.12191 20.447C7.29694 20.4505 7.52958 20.3475 7.82812 19.9881V19.0575H7.54688V19.3856H6.70312V19.0575H6.42188ZM16.1719 19.0575V19.9855C16.4595 20.3237 16.6979 20.4435 16.8719 20.447C17.0469 20.4505 17.2796 20.3475 17.5781 19.9881V19.0575H17.2969V19.3856H16.4531V19.0575H16.1719ZM1.92188 19.8075V21.4553C2.18419 21.7136 2.32861 21.8421 2.47716 21.8916C2.59219 21.9299 2.8387 21.9455 3.18239 21.9533C3.11002 21.2385 3.06117 20.5231 3.0322 19.8075H1.92188V19.8075ZM20.9658 19.8075C20.9363 20.5211 20.8873 21.2364 20.8153 21.9534C21.1602 21.9456 21.4076 21.93 21.5228 21.8916C21.6714 21.8421 21.8158 21.7137 22.0781 21.4553V19.8075H20.9658ZM8.67188 20.6645V22.9847C10.9008 23.0555 13.1192 23.0525 15.3281 22.9812V20.6672C13.1571 21.1373 10.9341 21.1446 8.67188 20.6645V20.6645ZM6.42188 21.0921V22.8883C6.89109 22.9136 7.35984 22.9355 7.82812 22.9543V21.0944C7.60031 21.225 7.35891 21.2956 7.10484 21.2905C6.86147 21.2856 6.63441 21.2144 6.42188 21.0921ZM16.1719 21.0921V22.9509C16.6411 22.932 17.1098 22.9097 17.5781 22.8847V21.0944C17.3503 21.225 17.1089 21.2956 16.8548 21.2905C16.6115 21.2856 16.3844 21.2144 16.1719 21.0921Z" fill="white"/>
</svg>
