<svg width="24" height="24" viewBox="0 0 24 24" fill="none" xmlns="http://www.w3.org/2000/svg">
<path d="M21.2482 0.802368C21.2226 1.14137 21.324 1.5279 21.5274 1.86231C21.7307 2.19667 22.0274 2.46451 22.3401 2.59777C22.7927 2.07249 22.0831 0.817743 21.3983 0.787275C21.3472 0.783993 21.2926 0.793697 21.2482 0.802368ZM16.0194 1.19518L15.4449 2.32548L18.3051 7.02826L19.5064 6.92856L20.1474 5.90776L19.7226 5.20932L18.441 5.98876L16.663 3.06512L16.4437 2.7047L17.7253 1.92526L17.2872 1.20488L16.0194 1.19518ZM20.4246 1.27112L17.603 2.98721L18.7235 4.82954L21.5451 3.11345C21.2476 2.89763 20.9977 2.61493 20.8066 2.30063C20.6154 1.98638 20.4794 1.63454 20.4246 1.27112ZM14.5647 2.19507L6.98751 2.31788C7.47515 3.44457 7.3387 4.53024 6.78182 5.39513C5.90723 4.72777 4.70334 4.67448 3.80962 4.56465C3.15056 10.369 3.51806 15.1569 3.51567 20.6029C3.51548 21.0467 3.46143 21.6866 3.74189 22.1473C3.83034 22.2926 3.94673 22.4251 4.12293 22.5383C4.953 22.2474 6.06379 21.9552 6.69497 21.4942C6.36914 21.4555 6.00333 21.5388 5.70412 21.539C5.30765 21.5371 4.80675 21.2526 4.54406 20.6251C4.40723 20.2982 4.233 19.7723 4.53558 19.2624C4.66861 19.0381 4.9754 18.7794 5.20401 18.7782C9.64078 18.8019 14.1755 18.7632 18.3088 18.7854C18.0499 15.1831 17.8394 11.5622 18.0495 7.89601L17.8552 7.91209L17.1595 6.76815L14.0251 8.67446L14.343 9.17124L13.6322 9.62588L10.8621 5.29599L11.5727 4.84131L11.9531 5.43591L15.1621 3.48418L14.602 2.56309L14.4798 2.36223L14.5647 2.19507ZM6.11925 2.40052C5.39897 2.78551 4.75509 3.23031 4.19784 3.74617C4.95567 3.81624 5.7794 3.88974 6.47784 4.21257C6.62498 3.56401 6.32564 2.95182 6.11925 2.40052ZM15.6006 4.20493L12.4766 6.10496L12.8176 6.66568L14.3797 5.71576L14.818 6.43656L13.2561 7.38657L13.5972 7.94734L16.7211 6.04735L15.6006 4.20493ZM9.44104 6.38804L9.4619 7.23142C8.03118 7.24327 6.71409 7.32652 5.24254 7.33032V6.48657C6.64209 6.45549 8.04159 6.42263 9.44104 6.38799V6.38804ZM16.2371 10.0902L16.2484 10.9338L5.2634 11.0811L5.25206 10.2376L16.2371 10.0902ZM16.2408 11.9973L16.2599 12.8407L10.4636 12.9724L10.4444 12.1289L16.2408 11.9973ZM5.21681 12.1425H9.46378V12.9861H5.21681V12.1425ZM16.2228 13.7004L16.2419 14.5438L13.3282 14.6097L13.3092 13.7663L16.2228 13.7004ZM12.3 13.7686L12.3159 14.6122L5.27058 14.7438L5.25478 13.9004L12.3 13.7686ZM16.3288 16.2439L16.3476 17.0874L10.4579 17.2191L10.4391 16.3757L16.3288 16.2439ZM7.12612 19.5622C7.59722 19.9963 7.96636 20.5965 7.8329 21.2834C7.73568 21.7841 7.34437 22.1086 6.90412 22.3665C6.46387 22.6243 5.93029 22.8289 5.38012 23.0187C5.1892 23.0845 4.99798 23.1494 4.80647 23.2134L18.934 22.8538C19.2983 22.8327 19.6211 22.5885 19.859 22.2254C20.0972 21.8619 20.2095 21.3902 20.1822 21.1362C20.1549 20.8822 19.9545 20.4482 19.6679 20.1293C19.3812 19.8103 19.0328 19.6219 18.7761 19.6316L18.7668 19.632L7.12612 19.5622ZM5.2612 19.6929C5.21104 19.7773 5.23936 20.1013 5.32228 20.2994C5.49665 20.7159 5.60484 20.6949 5.70815 20.6953C6.12426 20.7938 6.52129 20.7079 6.91987 20.6473C6.82364 20.454 6.67223 20.2393 6.43786 20.0795C6.24473 19.9478 5.46872 19.3466 5.2612 19.6929Z" fill="white"/>
</svg>
