<svg width="24" height="24" viewBox="0 0 24 24" fill="none" xmlns="http://www.w3.org/2000/svg">
<path d="M13.2217 0.981462C12.3369 0.981462 11.6338 1.71084 11.6338 2.5957C11.6338 3.48056 12.3369 4.18359 13.2217 4.18359C14.1065 4.18359 14.8096 3.48056 14.8096 2.5957C14.8096 1.71093 14.1065 0.981415 13.2217 0.981415V0.981462ZM6.08929 3.84815C5.20453 3.84815 4.5014 4.57893 4.5014 5.46393C4.5014 6.34874 5.20453 7.05177 6.08934 7.05177C6.97411 7.05177 7.67723 6.34874 7.67723 5.46388C7.67723 4.57907 6.97411 3.8481 6.08939 3.8481L6.08929 3.84815ZM19.415 4.91015C18.5302 4.91015 17.8271 5.64093 17.8271 6.52593C17.8271 7.41074 18.5302 8.11377 19.415 8.11377C20.2998 8.11377 21.0029 7.41074 21.0029 6.52588C21.0029 5.64102 20.2997 4.9101 19.415 4.9101V4.91015ZM11.8095 7.60842C11.6576 7.60827 11.5043 7.6281 11.354 7.66842C10.1513 7.99068 9.52022 9.53193 9.94326 11.1108C10.1074 11.7236 10.4065 12.2506 10.7812 12.649C9.87998 12.8614 9.18098 13.2802 8.88272 13.7974L8.86369 13.793L6.91397 16.8135L4.53797 15.7852C3.16097 15.0296 1.65164 16.9102 3.10247 17.7393L7.53065 19.8047L9.31331 17.458C10.3208 19.2737 10.0515 21.0901 8.13562 22.9072H16.0664C14.1998 21.1166 14.0771 19.3249 14.9752 17.5342L16.7006 19.8047L21.1289 17.7393C21.6743 17.4276 21.8008 16.9672 21.6738 16.5543C21.2902 16.8008 20.8341 16.9454 20.3452 16.9454C19.6785 16.9454 19.074 16.6772 18.63 16.2451L17.3175 16.8135L15.3677 13.793H15.3663C15.1095 13.3516 14.5589 12.9831 13.8413 12.7529C14.3842 12.0863 14.5878 11.0233 14.2984 9.9434C13.9282 8.56185 12.8734 7.60912 11.8097 7.60842H11.8095ZM4.11614 10.4692C3.23137 10.4692 2.52829 11.1986 2.52829 12.0835C2.52829 12.9685 3.23142 13.6714 4.11614 13.6714C5.00095 13.6714 5.70408 12.9684 5.70408 12.0835C5.70408 11.1988 5.00095 10.4693 4.11614 10.4693V10.4692ZM20.3452 12.8657C19.4604 12.8657 18.7573 13.5965 18.7573 14.4814C18.7573 15.3663 19.4604 16.0693 20.3452 16.0693C21.23 16.0693 21.9331 15.3663 21.9331 14.4814C21.9331 13.5966 21.23 12.8657 20.3452 12.8657V12.8657Z" fill="white"/>
</svg>
