<svg width="24" height="24" viewBox="0 0 24 24" fill="none" xmlns="http://www.w3.org/2000/svg">
<path fill-rule="evenodd" clip-rule="evenodd" d="M22 12C22 17.5228 17.5228 22 12 22C6.47717 22 2 17.5228 2 12C2 6.47717 6.47717 2 12 2C17.5228 2 22 6.47717 22 12ZM24 12C24 18.6274 18.6274 24 12 24C5.37256 24 0 18.6274 0 12C0 5.37256 5.37256 0 12 0C18.6274 0 24 5.37256 24 12ZM11 8C11 7.44769 11.4478 7 12 7C12.5522 7 13 7.44769 13 8V11H16C16.5522 11 17 11.4477 17 12C17 12.5523 16.5522 13 16 13H13V16C13 16.5523 12.5522 17 12 17C11.4478 17 11 16.5523 11 16V13H8C7.44775 13 7 12.5523 7 12C7 11.4477 7.44775 11 8 11H11V8Z" fill="white"/>
</svg>
