<svg width="24" height="24" viewBox="0 0 24 24" fill="none" xmlns="http://www.w3.org/2000/svg">
<g clip-path="url(#clip0)">
<path d="M20.8762 8.95575C20.3834 8.55108 19.6948 8.3063 19.153 8.13697C18.6177 7.96967 18.1157 7.701 17.6942 7.3294C17.2277 6.91806 17.0299 6.39488 16.6467 5.93575C16.1323 5.31947 14.8147 5.26324 14.0934 4.92645C13.2327 4.52457 12.5545 3.89716 12.095 3.06378C12.0948 3.06347 12.0946 3.06315 12.0945 3.06284C11.8151 2.55613 11.461 2.14511 10.8187 2.19233C9.98543 2.25358 9.74308 3.03649 9.53649 3.71668C9.3057 4.47653 9.14743 5.26241 8.63562 5.89626C8.26104 6.3601 7.76554 6.69947 7.1628 6.90492C6.78594 7.03336 6.39056 7.10191 5.99742 7.15869C5.56491 7.22116 5.48986 7.13469 5.44629 7.5914C5.41895 7.87806 5.38491 8.23485 5.28225 8.60952C4.91001 9.96768 3.96742 10.7327 3.27879 11.2914C2.76005 11.7122 2.02362 12.5838 2.73087 13.1702C3.5253 13.8289 4.8488 13.8187 5.75637 14.3034C6.0328 14.4511 6.26107 14.6183 6.45421 14.8145C6.81284 15.179 7.02794 15.6279 7.07633 16.1127C7.11707 16.5211 7.03735 16.9314 6.83939 17.3325C6.54766 17.9233 6.09256 18.386 5.44809 18.7471C5.01358 18.9907 4.57546 19.1436 4.15166 19.2916C3.33107 19.578 2.41111 20.1971 2.97636 21.209C3.19722 21.6044 3.62401 21.817 4.06828 21.817C4.08323 21.817 4.09836 21.8168 4.1133 21.8164C4.44127 21.8066 4.78507 21.6847 5.13562 21.4542C6.21613 20.7437 6.26758 19.3265 7.1986 18.5004C7.48664 18.2447 7.82445 18.0549 8.23135 17.9198C8.51041 17.8271 8.80296 17.7801 9.10088 17.7801C9.94727 17.7801 10.783 18.1799 11.281 18.869C11.731 19.4915 11.7652 20.2897 12.3853 20.7877C13.413 21.6132 14.3445 21.1435 15.0845 20.2515C15.5741 19.6615 16.2274 19.2062 16.9546 18.9607C17.5572 18.7575 18.2269 18.8375 18.829 18.6128C19.7946 18.2526 19.5158 17.462 18.9881 16.7872C18.2352 15.8243 17.792 14.5404 18.3336 13.3672C18.7196 12.5313 19.5053 12.0413 20.325 11.702C21.0378 11.4069 21.6119 10.8244 21.4964 9.98109C21.438 9.55473 21.1991 9.22093 20.8762 8.95575ZM7.50982 12.1306C7.00562 12.1306 6.59688 11.7218 6.59688 11.2176C6.59688 10.7134 7.00562 10.3047 7.50982 10.3047C8.01402 10.3047 8.42276 10.7134 8.42276 11.2176C8.42276 11.7219 8.01406 12.1306 7.50982 12.1306ZM13.7226 10.8685C13.0105 10.8685 12.4333 10.2913 12.4333 9.57916C12.4333 8.86705 13.0105 8.28979 13.7226 8.28979C14.4347 8.28979 15.0119 8.86705 15.0119 9.57916C15.0119 10.2913 14.4347 10.8685 13.7226 10.8685Z" fill="white"/>
<path d="M22.2197 7.26425C21.5189 6.70676 20.6514 6.31621 19.8048 6.05162C19.0837 5.82625 18.8391 5.26432 18.4116 4.70946C17.9703 4.13687 17.415 3.72381 16.7233 3.50213C16.0374 3.28232 15.1266 3.2317 14.5632 2.74848C14.097 2.34868 13.8893 1.72578 13.5114 1.25358C13.0274 0.648795 12.3265 0.221265 11.5672 0.0676966C9.92623 -0.264186 8.42219 0.655736 7.79459 2.16013C7.49706 2.87327 7.48866 3.72742 7.02514 4.36421C6.64651 4.88432 6.05188 4.95126 5.45988 5.03091C4.79612 5.12025 4.12678 5.34476 3.71317 5.90268C3.14153 6.67374 3.41172 7.69778 2.90729 8.52193C2.51286 9.16636 1.88737 9.62766 1.35015 10.1589C0.173684 11.3223 -0.0948261 13.1141 0.969213 14.4548C1.56725 15.2082 2.38004 15.5193 3.28404 15.725C3.67215 15.8132 4.82133 15.8168 4.77988 16.4083C4.74647 16.8836 3.78745 17.1045 3.43125 17.2288C2.78761 17.4535 2.12208 17.6858 1.63027 18.1939C0.731801 19.1222 0.400154 20.5587 0.843566 21.7775C1.21004 22.7849 2.08482 23.5924 3.11827 23.8772C3.9627 24.1099 4.88408 24.0011 5.68361 23.6434C6.90184 23.0984 7.88419 21.999 8.36016 20.7591C8.51121 20.3655 8.73243 19.8237 9.27498 19.9945C9.66678 20.1179 9.67231 20.5388 9.80168 20.859C9.9627 21.2576 10.2291 21.6272 10.5154 21.9445C11.0767 22.5664 11.8138 23.037 12.6131 23.2871C13.4697 23.5551 14.3957 23.5285 15.2064 23.1265C16.0905 22.6882 16.428 21.8255 17.1804 21.2782C17.7274 20.8802 18.3879 20.8688 19.0254 20.7594C20.5839 20.4919 21.7538 19.1606 21.6549 17.5529C21.612 16.8548 21.3336 16.2637 20.9212 15.7115C20.4983 15.1452 20.028 14.376 20.8368 13.8939C21.6175 13.4284 22.3453 13.201 22.9218 12.4316C23.4979 11.6626 23.7921 10.6645 23.6711 9.70683C23.5393 8.66338 22.9767 7.8664 22.2197 7.26425ZM21.9881 11.4648C21.7382 11.864 21.3972 12.1751 21.0021 12.3644C20.898 12.4143 20.7765 12.4646 20.6591 12.5133C20.4125 12.6155 20.1334 12.7313 19.8762 12.8948C19.1642 13.3474 18.8331 14.1542 19.0282 14.98C19.3274 16.2473 20.861 17.1088 20.197 18.5404C19.9879 18.9913 19.7419 19.1555 19.5509 19.2482C19.2577 19.3906 18.8906 19.4472 18.4654 19.5129C17.8791 19.6034 17.2148 19.7059 16.5698 20.0772C16.0658 20.3674 15.762 20.858 15.4114 21.303C14.546 22.4016 12.8578 22.2751 11.8446 21.4617C11.3698 21.0804 11.037 20.5622 10.8824 19.963C10.6709 19.1437 9.81047 18.6009 8.98078 18.6441C8.11972 18.6891 7.50894 19.3273 7.20459 20.0875C6.86702 20.9307 6.38078 21.6693 5.61055 22.1759C5.12431 22.4957 4.62945 22.6652 4.13968 22.6799C4.11639 22.6806 4.09215 22.681 4.06831 22.681C3.50443 22.681 2.98 22.4784 2.59161 22.1103C1.82862 21.3872 1.7551 20.0814 2.44102 19.2761C3.08635 18.5184 4.19541 18.4586 5.02568 17.9933C6.04906 17.4198 6.71337 16.1631 5.63776 15.2592C5.1627 14.86 4.53831 14.6975 3.93663 14.5457C3.26839 14.3771 2.36078 14.1582 1.92639 13.5732C1.08349 12.438 1.83074 11.3536 2.73419 10.6206C3.39776 10.0822 4.14992 9.47197 4.44894 8.38142C4.62725 7.73095 4.4331 6.76315 5.16882 6.41785C5.86117 6.09291 6.6847 6.19013 7.362 5.83389C8.02663 5.48429 8.37925 4.79385 8.58768 4.10154C8.77435 3.48146 8.89106 2.82836 9.222 2.27174C9.62408 1.59534 10.4153 1.25507 11.1862 1.35413C12.1985 1.48425 12.6095 2.24981 13.0965 3.04679C13.5107 3.72472 14.0293 4.12585 14.7924 4.33632L16.1793 4.71876C16.9112 4.92056 17.2553 5.17723 17.5432 5.73601C17.9469 6.52091 18.5752 7.05119 19.4107 7.31228C20.2456 7.57323 20.9165 7.90221 21.4047 8.29005C22.3785 9.06378 22.6531 10.4026 21.9881 11.4648Z" fill="white"/>
</g>
<defs>
<clipPath id="clip0">
<path d="M0 0H24V24H0V0Z" fill="white"/>
</clipPath>
</defs>
</svg>
