<svg width="24" height="24" viewBox="0 0 24 24" fill="none" xmlns="http://www.w3.org/2000/svg">
<path d="M10.1133 0.987291C10.0521 0.987291 9.99225 0.9894 9.93455 0.99315C9.84248 0.999103 9.75745 1.0112 9.67673 1.02681L8.03766 3.86715C8.2372 3.81545 8.44641 3.78802 8.66156 3.78802C9.66581 3.78802 10.5333 4.38699 10.9306 5.24556L12.7676 2.06537C12.5545 1.79509 12.0784 1.4529 11.5034 1.24365C11.0468 1.07743 10.5417 0.987103 10.1133 0.987244V0.987291ZM14.1314 1.80901C14.0572 1.8076 13.9875 1.81121 13.9219 1.81782L11.8345 5.43456C12.0607 5.36678 12.3002 5.32909 12.5479 5.32909C13.5237 5.32909 14.3724 5.89393 14.7847 6.7134L16.8076 3.20799C16.6142 2.88343 16.1553 2.47379 15.5992 2.19868C15.1098 1.95667 14.5583 1.81721 14.1314 1.80906L14.1314 1.80901ZM6.51422 3.18451C6.00319 3.19482 5.5132 3.3759 4.99078 3.75732C4.50206 4.11399 3.99844 4.65465 3.47752 5.36715L5.71875 6.13027L7.34325 3.31637C7.09022 3.23284 6.84811 3.19013 6.61669 3.18451C6.58247 3.18371 6.54825 3.18385 6.51417 3.18451H6.51422ZM17.3584 4.00778L15.2578 7.6479C15.5074 7.56273 15.7741 7.51459 16.0518 7.51459C17.0049 7.51459 17.8351 8.05881 18.2505 8.85203L19.9835 5.85203C19.8164 5.45359 19.3789 4.94945 18.8496 4.58499C18.3384 4.23278 17.7505 4.02371 17.3584 4.00778H17.3584ZM8.66156 4.66403C7.75828 4.66403 7.03416 5.38815 7.03416 6.29293C7.03416 7.19771 7.75837 7.92184 8.66166 7.92184C9.56494 7.92184 10.2876 7.19785 10.2876 6.29293C10.2876 5.38815 9.56489 4.66403 8.66152 4.66403H8.66156ZM2.74359 6.04393C2.26266 8.41065 2.30944 10.8296 3.02789 12.8906C3.03661 12.9157 3.04533 12.9403 3.05423 12.9653L3.06305 12.955L3.39703 13.4341C3.43791 13.4926 3.48187 13.5522 3.52734 13.6112C3.48811 11.6794 4.02 9.42788 5.28225 6.90812L2.74359 6.04403V6.04393ZM12.5478 6.20504C11.6445 6.20504 10.9219 6.92767 10.9219 7.83254C10.9219 8.73723 11.6445 9.46145 12.5479 9.46145C13.4512 9.46145 14.1753 8.73742 14.1753 7.83254C14.1753 6.92767 13.4512 6.20504 12.5478 6.20504H12.5478ZM20.4829 6.79979L18.5243 10.1924C18.5221 10.2212 18.5203 10.2503 18.517 10.2788C18.7178 10.2222 18.9288 10.1909 19.147 10.1909C20.1453 10.1909 21.002 10.8261 21.3369 11.7114L23.0493 8.7466C22.8885 8.33129 22.4578 7.80479 21.9345 7.41943C21.4367 7.05287 20.8638 6.82881 20.4829 6.79984L20.4829 6.79979ZM6.24605 6.95063C4.68225 9.93934 4.21388 12.4809 4.46925 14.4785C4.47548 14.5275 4.48266 14.5752 4.48973 14.6236C5.42958 15.4637 6.7013 16.3072 8.06395 17.0478C9.94692 18.0711 12.006 18.9172 13.5982 19.3974C15.5683 18.6827 17.55 17.2179 19.1836 14.8755C19.1715 14.8756 19.1593 14.8769 19.1471 14.8769C17.8592 14.8769 16.8061 13.823 16.8061 12.5346C16.8061 12.4765 16.8093 12.4189 16.8135 12.3618C16.5733 12.4398 16.3173 12.4833 16.0518 12.4833C14.725 12.4833 13.6335 11.4289 13.5718 10.1161C13.2588 10.2577 12.9124 10.3374 12.548 10.3374C11.3445 10.3374 10.3345 9.4772 10.0988 8.34071C9.69164 8.62824 9.19547 8.79774 8.6617 8.79774C7.51186 8.79774 6.53677 8.01193 6.24623 6.95059L6.24605 6.95063ZM16.0518 8.39059C15.1596 8.39059 14.4448 9.10543 14.4448 9.99901C14.4448 10.8926 15.1597 11.6074 16.0517 11.6074C16.9439 11.6074 17.6572 10.8927 17.6572 9.99896C17.6572 9.10538 16.9439 8.39059 16.0518 8.39059ZM19.1469 11.0683C18.3331 11.0683 17.6821 11.7193 17.6821 12.5346C17.6821 13.3499 18.3331 14.001 19.1469 14.001C19.9609 14.001 20.6118 13.3501 20.6118 12.5346C20.6118 11.7193 19.9609 11.0684 19.1469 11.0684V11.0683ZM3.04252 14.4023C2.69456 14.8556 2.37797 15.3009 2.08889 15.7368C2.23992 16.1661 2.5628 16.6481 3.05719 17.1415C3.70875 17.792 4.64222 18.4553 5.76703 19.0664C7.71656 20.1253 10.2413 21.0283 12.8935 21.5287C13.0374 21.1095 13.167 20.6686 13.2788 20.2045C11.6211 19.7007 9.56597 18.8608 7.64503 17.8169C5.79862 16.8134 4.09814 15.6531 3.04247 14.4023H3.04252ZM1.53375 16.6201C1.32534 16.9724 1.13611 17.3169 0.965344 17.6557C1.03411 18.0809 1.33861 18.6021 1.88377 19.1426C2.45789 19.7116 3.28252 20.2955 4.2788 20.833C6.20461 21.8717 8.76848 22.7417 11.4141 23.1386H12.2286C12.35 22.8893 12.4675 22.6303 12.5787 22.3622C9.89386 21.841 7.35403 20.9265 5.34825 19.8369C4.16887 19.1963 3.17438 18.4952 2.439 17.7612C2.06813 17.3909 1.75978 17.0109 1.53384 16.6201H1.53375ZM0.855469 19.3168V20.915C0.904547 21.0229 1.00509 21.1719 1.17773 21.3354C1.4243 21.569 1.79545 21.8242 2.24855 22.0634C3.13355 22.5308 4.33139 22.9388 5.55905 23.1386H7.54688C6.19655 22.7123 4.94316 22.1862 3.86278 21.6035C2.81217 21.0368 1.92516 20.4174 1.26708 19.765C1.11834 19.6176 0.980812 19.4685 0.855516 19.3169L0.855469 19.3168ZM0.855469 22.2129V23.1386H2.46534C2.24691 23.0426 2.03723 22.9426 1.83984 22.8384C1.46812 22.6419 1.13616 22.434 0.855469 22.2128V22.2129Z" fill="white"/>
</svg>
