<svg width="24" height="24" viewBox="0 0 24 24" fill="none" xmlns="http://www.w3.org/2000/svg">
<g clip-path="url(#clip0)">
<path d="M8.47144 23.9679C8.70587 24.0925 8.95317 23.8226 8.80964 23.5993C8.03058 22.3867 7.29285 20.3464 8.46823 17.7188C10.4283 13.3369 11.621 11.0674 11.621 11.0674C11.621 11.0674 12.2554 13.7159 13.9751 16.0708C15.6302 18.3372 16.5361 21.1876 15.0757 23.5621C14.9386 23.785 15.1803 24.0479 15.4132 23.9287C17.221 23.004 19.2487 21.1489 19.4775 17.4575C19.5619 16.3295 19.4354 14.7502 18.8028 12.7574C17.9894 10.2317 16.9895 9.05313 16.4109 8.54702C16.2379 8.3956 15.9687 8.5298 15.9829 8.75929C16.1515 11.4846 15.1263 12.1761 14.5427 10.6176C14.3096 9.99506 14.1737 8.91835 14.1737 7.60713C14.1737 5.42418 13.5404 3.17704 12.1441 1.351C11.781 0.876132 11.3561 0.432405 10.8687 0.0540119C10.6922 -0.083008 10.4364 0.0547178 10.4525 0.277542C10.5598 1.75739 10.4626 5.99854 6.74179 11.0654C3.36809 15.7654 4.67539 19.375 5.13927 20.3527C6.02618 22.2256 7.26328 23.3255 8.47144 23.9679Z" fill="white"/>
</g>
<defs>
<clipPath id="clip0">
<path d="M0 0H24V24H0V0Z" fill="white"/>
</clipPath>
</defs>
</svg>
