<svg width="24" height="24" viewBox="0 0 24 24" fill="none" xmlns="http://www.w3.org/2000/svg">
<path d="M5.12584 3.86722C4.91471 3.86722 4.74353 4.0384 4.74353 4.24953V13.176C4.79639 13.0748 4.85012 12.9732 4.90537 12.8706C5.4693 11.8246 6.03812 10.9327 6.40024 10.3904V4.24953C6.40024 4.0384 6.22906 3.86722 6.01792 3.86722H5.12584Z" fill="white"/>
<path d="M8.90257 0C8.69144 0 8.52026 0.171177 8.52026 0.382314V8.21374C8.81877 8.01284 9.13728 7.84311 9.47398 7.7066C9.70386 7.61338 9.93853 7.53715 10.177 7.47762V0.382314C10.177 0.171177 10.0058 0 9.79465 0H8.90257Z" fill="white"/>
<path d="M17.5009 5.11389C17.7986 5.33067 18.0693 5.58448 18.3065 5.86628V1.44106C18.3065 1.22992 18.1353 1.05875 17.9242 1.05875H17.0321C16.821 1.05875 16.6498 1.22992 16.6498 1.44106V4.8855C16.6923 4.8811 16.7351 4.87863 16.7783 4.87863C17.0399 4.87863 17.2898 4.96005 17.5009 5.11389Z" fill="white"/>
<path d="M17.6911 13.4464C17.3874 13.3076 17.0765 13.177 16.7806 13.0116C16.2384 12.7085 15.7899 12.2764 15.4388 11.766C14.9085 10.9951 14.7334 9.87293 13.969 9.29779C13.2417 8.7505 12.3638 8.44308 11.4511 8.44308C11.0207 8.44308 10.5903 8.50987 10.1768 8.64344C9.57374 8.83826 9.00656 9.17509 8.52762 9.65399L8.52013 9.66148C7.66844 10.514 7.01675 11.453 6.40017 12.5022C6.04213 13.1115 5.65726 13.8158 5.31209 14.5524C4.66463 15.934 4.15695 17.4292 4.2284 18.6239C4.27946 19.4775 4.92271 20.1792 5.76409 20.3321C6.13954 20.4004 6.48526 20.5815 6.75511 20.8514L6.92726 21.0236L7.19801 21.2944L7.37017 21.4666C7.64005 21.7364 7.82119 22.0821 7.88946 22.4576C8.0424 23.299 8.74409 23.9422 9.59766 23.9933C9.67327 23.9978 9.74982 24 9.82778 24C11.2747 24 12.7142 23.3804 13.9908 22.7555C15.6431 21.9468 17.2583 21.0034 18.5676 19.6941C19.4298 18.8319 19.8715 17.6103 19.7616 16.396C19.6951 15.6607 19.4663 14.9149 18.9916 14.3396C18.6348 13.907 18.1719 13.6663 17.6911 13.4464Z" fill="white"/>
<path d="M16.8591 6.07011C16.8229 6.04243 16.7354 6.04243 16.6992 6.07011C15.8812 6.69646 15.304 7.68278 15.304 8.7927C15.304 9.9323 15.8603 10.9418 16.716 11.565C16.7325 11.5769 16.8135 11.5769 16.83 11.565C17.6858 10.9418 18.2463 9.9323 18.2463 8.7927C18.2463 7.68282 17.6772 6.69646 16.8591 6.07011Z" fill="white"/>
</svg>
