<svg width="24" height="24" viewBox="0 0 24 24" fill="none" xmlns="http://www.w3.org/2000/svg">
<g clip-path="url(#clip0)">
<path d="M4.81785 13.1565C4.95565 13.606 5.09812 14.0709 5.16922 14.5392C5.19828 14.73 5.31224 16.118 5.37385 16.8806C5.39746 17.1728 5.61903 17.4104 5.90887 17.4542L6.92146 17.6073C7.06746 17.6294 7.18389 17.7407 7.21232 17.8856L7.34573 18.568C7.40373 18.8646 7.66369 19.0785 7.96589 19.0784L15.8185 19.0737C16.1154 19.0735 16.3721 18.8665 16.4352 18.5764L16.588 17.8738C16.6217 17.7351 16.7363 17.6309 16.8775 17.6104L18.1103 17.4313C18.4066 17.3883 18.6319 17.1433 18.6499 16.8445C18.6972 16.0599 18.7855 14.6314 18.8128 14.4357C18.8777 13.9736 19.014 13.5168 19.1458 13.0724C19.3304 12.4505 19.5214 11.8087 19.5214 11.1411C19.5216 6.878 16.1331 3.41043 11.9681 3.41043C7.80318 3.41043 4.41467 6.87988 4.41467 11.1439C4.41471 11.8413 4.61965 12.51 4.81785 13.1565ZM12.9524 12.7631C13.0002 11.5522 14.0861 11.2478 15.2969 11.2956C16.5078 11.3435 17.3851 11.7256 17.3373 12.9365C17.2894 14.1473 16.269 15.0901 15.0581 15.0422C13.8473 14.9944 12.9045 13.974 12.9524 12.7631ZM12.24 15.1391L13.0259 16.303C13.0957 16.4062 13.1052 16.5387 13.051 16.6509L12.9382 16.8843C12.8798 17.0051 12.7575 17.0818 12.6233 17.0818H11.9501H11.2769C11.1427 17.0818 11.0204 17.0051 10.962 16.8843L10.8493 16.6509C10.7951 16.5387 10.8046 16.4063 10.8743 16.303L11.6603 15.1391C11.7989 14.9338 12.1013 14.9338 12.24 15.1391ZM8.63918 11.2956C9.85005 11.2478 10.9359 11.5522 10.9838 12.7631C11.0317 13.974 10.0889 14.9944 8.87801 15.0423C7.66714 15.0902 6.64675 14.1474 6.59887 12.9365C6.55099 11.7256 7.42832 11.3435 8.63918 11.2956Z" fill="white"/>
<path d="M21.8176 2.29847C21.9118 1.72004 21.7357 1.10612 21.2882 0.660943C20.5696 -0.0541156 19.3971 -0.0671352 18.6636 0.632669C17.8966 1.36439 17.8858 2.57957 18.6311 3.3249L17.946 4.01C17.6723 4.28377 17.6723 4.72761 17.946 5.00137L19.1147 6.17008C19.3884 6.44384 19.8323 6.44384 20.1061 6.17008L20.7911 5.48498C21.5365 6.23035 22.7517 6.21949 23.4834 5.45251C24.1832 4.71898 24.1701 3.54647 23.4551 2.82784C23.0099 2.38039 22.396 2.20428 21.8176 2.29847Z" fill="white"/>
<path d="M3.20881 5.48492L3.89391 6.17002C4.16767 6.44378 4.61152 6.44378 4.88524 6.17002L6.05395 5.00131C6.32772 4.72755 6.32772 4.2837 6.05395 4.00994L5.36885 3.32484C6.11423 2.57951 6.10336 1.36433 5.33638 0.632604C4.60285 -0.0671607 3.43038 -0.0541411 2.71171 0.660918C2.2643 1.10609 2.08818 1.72002 2.18238 2.29845C1.60394 2.20425 0.990061 2.38037 0.544845 2.82778C-0.170215 3.54641 -0.183274 4.71892 0.516531 5.45245C1.24826 6.21943 2.46344 6.23025 3.20881 5.48492Z" fill="white"/>
<path d="M23.4835 18.5475C22.7518 17.7805 21.5366 17.7697 20.7913 18.5151L20.1062 17.83C19.8324 17.5562 19.3886 17.5562 19.1148 17.83L17.9461 18.9987C17.6724 19.2724 17.6724 19.7163 17.9461 19.99L18.6312 20.6751C17.8859 21.4205 17.8967 22.6357 18.6637 23.3673C19.3972 24.0672 20.5697 24.0541 21.2884 23.3391C21.7358 22.8939 21.9119 22.28 21.8177 21.7016C22.3962 21.7957 23.01 21.6196 23.4552 21.1722C24.1702 20.4535 24.1833 19.281 23.4835 18.5475Z" fill="white"/>
<path d="M2.18244 21.7015C2.08824 22.2799 2.26436 22.8939 2.71181 23.339C3.43047 24.0541 4.60295 24.0671 5.33647 23.3673C6.10346 22.6356 6.11428 21.4204 5.36895 20.6751L6.05404 19.99C6.32781 19.7162 6.32781 19.2724 6.05404 18.9986L4.88534 17.8299C4.61157 17.5561 4.16773 17.5561 3.894 17.8299L3.20891 18.515C2.46353 17.7696 1.24836 17.7804 0.516671 18.5475C-0.183133 19.281 -0.170113 20.4535 0.544946 21.1721C0.990122 21.6196 1.604 21.7957 2.18244 21.7015Z" fill="white"/>
</g>
<defs>
<clipPath id="clip0">
<path d="M0 0H24V24H0V0Z" fill="white"/>
</clipPath>
</defs>
</svg>
