<svg width="24" height="24" viewBox="0 0 24 24" fill="none" xmlns="http://www.w3.org/2000/svg">
<path d="M8.13867 0.736877L8.89598 3.25922L4.4722 0.966799L7.42828 4.60547L2.11814 5.50341L7.42814 6.42333L4.62886 9.94786L7.67714 8.38191L7.5937 11.1402L8.52389 9.38967V6.37946L8.55905 6.29742L10.0546 2.79352L8.13862 0.736877H8.13867ZM14.9941 0.736877L13.2642 2.59421L14.8271 6.29874L14.8623 6.38077V9.64903L15.5888 11.0172L15.5127 8.46549L18.5845 10.0621L15.6284 6.42347L20.9384 5.5036L15.6284 4.60566L18.5844 0.966987L14.2513 3.21258L14.994 0.737112L14.9941 0.736877ZM11.685 1.10438L9.37941 6.47156V13.6669L11.017 15.3047C11.1537 12.2374 11.3909 9.26081 11.7319 6.50531C12.0884 9.38499 12.3293 12.5416 12.4599 15.7866L13.9892 14.2573V6.47166L11.685 1.10447L11.685 1.10438ZM1.55278 9.69586L3.30328 14.105L12.3926 23.1959H13.8369C10.7272 19.9848 7.8143 16.6801 5.37014 13.5455C8.87194 16.2758 12.6406 19.6548 16.2129 23.1958H17.669L5.94436 11.4698L1.55273 9.69581L1.55278 9.69586ZM22.4048 9.69586L18.0161 11.4683L12.5977 16.8867L13.4487 17.7363C15.1493 16.2315 16.8385 14.8177 18.4702 13.5454C17.1904 15.1868 15.7815 16.8745 14.2838 18.5712L15.2372 19.5234L20.6528 14.108L22.4047 9.69581L22.4048 9.69586ZM8.72156 20.7627L6.28847 23.1958H7.62881C8.21925 22.6105 8.81541 22.0298 9.41447 21.4556L8.72166 20.7626L8.72156 20.7627ZM10.5673 22.6099C10.38 22.8055 10.1921 23.0008 10.0034 23.1958H11.1532L10.5673 22.6099Z" fill="white"/>
</svg>
