<svg width="24" height="24" viewBox="0 0 24 24" fill="none" xmlns="http://www.w3.org/2000/svg">
<path d="M10.6125 3.41267C11.0173 3.41267 11.3454 3.08454 11.3454 2.67977C11.3454 2.275 11.0173 1.94687 10.6125 1.94687C10.2078 1.94687 9.87964 2.275 9.87964 2.67977C9.87964 3.08454 10.2078 3.41267 10.6125 3.41267Z" fill="white"/>
<path d="M12.6684 2.32667C13.3109 2.32667 13.8317 1.80583 13.8317 1.16334C13.8317 0.520843 13.3109 0 12.6684 0C12.0259 0 11.505 0.520843 11.505 1.16334C11.505 1.80583 12.0259 2.32667 12.6684 2.32667Z" fill="white"/>
<path d="M12.0001 24C15.5653 24 18.4554 21.1098 18.4554 17.5446C18.4554 14.7223 16.644 12.3233 14.1204 11.446V10.8651V10.523H12.5574C12.2594 10.523 12.017 10.2858 12.0082 9.99C12.008 9.98447 12.0077 9.97895 12.0077 9.97338C12.0077 9.66977 12.2539 9.42369 12.5574 9.42369H14.1204V8.0851H12.5574C12.2539 8.0851 12.0077 7.83898 12.0077 7.53542C12.0077 7.23181 12.2539 6.98573 12.5574 6.98573H14.1204V6.02675H14.3283C14.7331 6.02675 15.0612 5.69863 15.0612 5.29385V4.78365C15.0612 4.37887 14.7331 4.05075 14.3283 4.05075H9.67182C9.26703 4.05075 8.93891 4.37887 8.93891 4.78365V5.29385C8.93891 5.69863 9.26703 6.02675 9.67182 6.02675H9.8797V10.2919V10.8651V11.446C7.35613 12.3233 5.54468 14.7222 5.54468 17.5445C5.54468 21.1098 8.43483 24 12.0001 24ZM7.45193 14.7094H16.5482C17.0753 15.5413 17.3805 16.5277 17.3805 17.5855C17.3805 20.557 14.9716 22.9659 12.0001 22.9659C9.02848 22.9659 6.61958 20.557 6.61958 17.5855C6.61958 16.5277 6.92476 15.5413 7.45193 14.7094Z" fill="white"/>
<path d="M11.6668 19.1395C12.3092 19.1395 12.8301 18.6187 12.8301 17.9762C12.8301 17.3337 12.3092 16.8129 11.6668 16.8129C11.0243 16.8129 10.5034 17.3337 10.5034 17.9762C10.5034 18.6187 11.0243 19.1395 11.6668 19.1395Z" fill="white"/>
<path d="M14.4001 20.544C14.7815 20.544 15.0907 20.2348 15.0907 19.8534C15.0907 19.472 14.7815 19.1628 14.4001 19.1628C14.0187 19.1628 13.7095 19.472 13.7095 19.8534C13.7095 20.2348 14.0187 20.544 14.4001 20.544Z" fill="white"/>
</svg>
