<svg width="24" height="24" viewBox="0 0 24 24" fill="none" xmlns="http://www.w3.org/2000/svg">
<g clip-path="url(#clip0)">
<path d="M21.2685 9.23612C21.0078 6.22432 19.225 3.44688 16.7276 1.78312C15.359 0.871391 13.7732 0.311784 12.1456 0.100098C7.65961 -0.483391 2.93499 1.487 1.2426 5.89342C-0.212261 9.68153 1.22221 13.4422 3.82742 16.3103C4.76757 17.3454 4.89793 19.2914 4.89793 20.6023V23.2608C4.89793 23.669 5.22883 23.9999 5.63699 23.9999H15.2566C15.646 23.9999 15.9678 23.6978 15.9941 23.3093C16.0295 22.7864 16.0877 22.3265 16.0877 22.3265C16.2888 21.4639 17.0243 20.7722 18.5884 21.0233C20.2293 21.2866 21.2643 20.7976 21.3564 19.705C21.3867 19.3446 21.4063 16.266 21.4063 16.266C21.4847 16.2212 21.9991 16.1189 22.7489 15.9485C23.3319 15.8159 23.5372 15.0921 23.1121 14.6716C21.4075 12.9853 21.1788 12.1991 21.1365 12.0299C20.9254 11.1892 21.345 10.1195 21.2685 9.23612ZM18.0913 8.22965C17.8545 8.52969 17.5847 8.58832 17.442 8.59616C17.395 8.59875 17.3623 8.64346 17.3751 8.68871C17.4484 8.94683 17.5229 9.65777 16.2501 9.93459C15.0565 10.194 14.3347 11.1224 13.8634 11.5939C13.5013 11.9557 13.0115 12.1231 12.5229 12.2331C12.0237 12.3454 11.5291 12.4437 11.1353 12.7984C10.7205 13.172 10.1354 15.2292 10.0362 15.5868C10.0274 15.6182 9.99886 15.6398 9.96623 15.6398H9.35365C9.31925 15.6398 9.28949 15.6157 9.28239 15.582L8.98557 14.178C8.9731 14.119 6.09545 14.3558 5.87393 13.0713C5.86616 13.0263 5.82063 12.9983 5.77761 13.0138C5.50091 13.1137 4.61322 13.3593 4.13409 12.6169C3.79436 12.0905 3.8846 11.5991 3.93193 11.4294C3.94173 11.3942 3.92409 11.3577 3.89056 11.3433C3.64644 11.2383 2.76432 10.7437 2.88393 9.11644C2.98044 7.80475 3.86765 7.22338 3.74362 7.02166C3.38581 6.43981 3.69683 5.47534 4.42989 5.26005C4.45942 5.25138 4.4804 5.22523 4.48318 5.19456L4.51412 4.85264C4.61593 3.64703 6.20004 2.883 7.27706 3.38421C7.31859 3.40354 7.36796 3.38296 7.38177 3.33931C7.51659 2.91194 7.78871 2.79429 7.86122 2.75351C8.19514 2.56562 8.62874 2.58884 8.97392 2.73053C9.00184 2.74198 9.03365 2.735 9.05423 2.71296C9.15231 2.6079 9.55447 2.27445 10.2205 2.27445C10.9036 2.27445 11.2509 2.60641 11.3723 2.69935C11.3946 2.71641 11.4246 2.71947 11.4496 2.70672C11.6033 2.62813 12.1644 2.37688 12.7262 2.57041C13.1505 2.71676 13.3913 3.10288 13.4671 3.24339C13.4833 3.27343 13.5174 3.28876 13.5506 3.28092C13.752 3.23319 14.4487 3.09939 15.034 3.3637C15.6525 3.64331 15.8455 4.04735 15.8947 4.1828C15.9047 4.21037 15.9305 4.22884 15.9599 4.23001C16.094 4.23535 16.4641 4.26782 16.6929 4.46005C17.0968 4.79966 17.0573 5.06742 17.0108 5.18201C16.9967 5.21691 17.0123 5.25691 17.0461 5.2735C17.2306 5.36397 17.7478 5.6628 18.0686 6.2975C18.5103 7.17185 18.3336 7.92271 18.0913 8.22965Z" fill="white"/>
</g>
<defs>
<clipPath id="clip0">
<path d="M0 0H24V24H0V0Z" fill="white"/>
</clipPath>
</defs>
</svg>
