<svg width="24" height="24" viewBox="0 0 24 24" fill="none" xmlns="http://www.w3.org/2000/svg">
<path d="M12.356 0.966797C11.7282 0.966797 11.1455 1.30509 10.6934 1.91311C10.2413 2.52108 9.94488 3.39188 9.94488 4.36233C9.94488 5.33273 10.2413 6.20208 10.6935 6.81005C11.1455 7.41811 11.7282 7.75645 12.356 7.75645C12.9838 7.75645 13.568 7.41811 14.0201 6.81005C14.4722 6.20208 14.7687 5.33273 14.7687 4.36233C14.7686 3.39192 14.4722 2.52108 14.0201 1.91311C13.568 1.30514 12.9838 0.966844 12.356 0.966844V0.966797ZM7.18075 1.17188L6.40436 1.57617L9.2403 7.01663C9.37052 6.94584 9.50622 6.88209 9.64905 6.82763C9.28741 6.20353 9.05945 5.44284 9.00006 4.66261L7.1807 1.17188H7.18075ZM17.5313 1.17188L15.6885 4.70803C15.6268 5.44247 15.4165 6.1613 15.0865 6.76022C15.2365 6.80953 15.3799 6.86634 15.5171 6.93164L18.3092 1.57617L17.5313 1.17188ZM4.81352 3.03956L4.16317 3.62691L8.10649 7.99519C8.28836 7.761 8.49166 7.54941 8.71881 7.36519L4.81352 3.03956ZM19.9 3.03956L16.0812 7.26862C16.2854 7.41872 16.4695 7.58986 16.6334 7.77834C16.661 7.81008 16.6889 7.84237 16.7154 7.875L20.5504 3.62695L19.9 3.03961L19.9 3.03956ZM2.95619 5.51663L2.48444 6.25491L7.35358 9.36769C7.46059 9.08798 7.58505 8.81939 7.72717 8.56786L2.95609 5.51663H2.95619ZM21.7574 5.51663L17.1227 8.48147C17.2638 8.73534 17.3833 9.00684 17.4845 9.29006L22.2292 6.25491L21.7575 5.51663H21.7574ZM14.5724 7.52194C14.0022 8.19506 13.2234 8.63231 12.3561 8.63231C11.5097 8.63231 10.7483 8.21583 10.1823 7.57031C9.00456 7.89347 8.37288 8.86092 7.98194 10.2583C7.59803 11.6311 7.51722 13.3639 7.50592 15.019H8.72467L8.56061 11.8447L9.43661 11.8008L9.62997 15.5508L10.1558 23.228H11.9371V17.0142H12.8131V23.228H14.7261L15.1935 15.5186L15.3853 11.8008L16.2598 11.8448L16.0957 15.019H17.212C17.211 13.3449 17.192 11.5842 16.8443 10.1997C16.6553 9.44737 16.3721 8.81484 15.9712 8.35402C15.6183 7.94845 15.1796 7.66237 14.5722 7.52198L14.5724 7.52194ZM1.73294 8.439L1.48384 9.27839L6.93447 10.8971C6.99011 10.6046 7.05695 10.3184 7.13369 10.0416L1.73303 8.43891L1.73294 8.439ZM22.9804 8.439L17.6982 10.0065C17.7678 10.2861 17.8255 10.5743 17.8726 10.8692L23.2294 9.27839L22.9804 8.43905V8.439ZM1.22913 11.6104V12.4864H6.72372C6.74903 12.1912 6.78109 11.8989 6.82038 11.6104H1.22913ZM17.9693 11.6104C17.9995 11.8991 18.0212 12.1917 18.0382 12.4864H23.483V11.6104H17.9693H17.9693ZM6.67103 13.2788L1.48384 14.8184L1.73289 15.6593L6.63569 14.2046C6.64263 13.897 6.65491 13.5878 6.67084 13.2788H6.67103ZM18.0718 13.2877C18.0805 13.5956 18.0845 13.902 18.0865 14.2076L22.9806 15.6593L23.2296 14.8184L18.0718 13.2877L18.0718 13.2877ZM6.62561 15.1949L2.48444 17.8433L2.95614 18.5801L7.15436 15.895H6.62406V15.457C6.62406 15.3706 6.62528 15.282 6.62556 15.1948L6.62561 15.1949ZM18.0895 15.1963V15.8951H17.5592L21.7574 18.5801L22.2291 17.8433L18.0894 15.1963H18.0895ZM8.29399 15.8951L4.16322 20.4713L4.81366 21.0586L8.82438 16.6158L8.77455 15.895H8.29408L8.29399 15.8951ZM16.049 15.8951L15.9977 16.7359L19.9 21.0587L20.5504 20.4714L16.4196 15.8952H16.049L16.049 15.8951ZM8.90055 17.7306L6.40445 22.5206L7.1807 22.9264L9.01624 19.4049L8.90045 17.7305L8.90055 17.7306ZM15.9244 17.9459L15.8218 19.6451L17.5313 22.9264L18.3092 22.5206L15.9244 17.9459H15.9244Z" fill="white"/>
</svg>
