<svg width="24" height="24" viewBox="0 0 24 24" fill="none" xmlns="http://www.w3.org/2000/svg">
<g clip-path="url(#clip0)">
<path d="M23.9802 7.97518C23.8276 5.88827 22.7676 4.02074 20.3223 3.07297C17.6022 2.0187 14.363 2.56188 11.8215 3.73231C9.16327 4.95647 5.88762 7.41604 5.08883 10.4619C4.7766 11.6524 4.88087 12.9694 5.48464 14.0418C6.26068 15.4204 7.79845 16.2718 9.37068 16.4467C11.5373 16.6878 13.7932 15.7999 15.4662 14.4569C16.4198 13.6913 17.2897 12.6925 17.7798 11.5638C18.2195 10.5512 18.3235 9.35126 17.8553 8.35157C17.2183 6.99161 15.7109 6.39725 14.2819 6.6209C14.0942 6.64972 13.9158 6.69055 13.7463 6.73917C13.5768 6.78757 13.4162 6.84357 13.2642 6.90608C12.9597 7.02953 12.6896 7.17741 12.4496 7.33451C12.21 7.49255 12.0007 7.66188 11.8212 7.83439C11.7806 7.87529 11.7406 7.91545 11.7015 7.95482C11.6591 7.99694 11.6222 8.03694 11.5852 8.07639C11.5116 8.15529 11.4445 8.23306 11.381 8.30706C11.2552 8.45604 11.1475 8.59361 11.0553 8.71878C10.8697 8.9678 10.7397 9.16282 10.652 9.29412C10.6088 9.36016 10.5761 9.41024 10.5542 9.4438C10.5326 9.47765 10.5217 9.49482 10.5217 9.49482C10.4856 9.55165 10.4836 9.62686 10.5231 9.68675C10.5766 9.76816 10.6861 9.79075 10.7675 9.73714C10.7675 9.73714 10.7845 9.72596 10.818 9.70396C10.8512 9.68173 10.9007 9.64855 10.9659 9.60479C11.0956 9.51702 11.287 9.38561 11.5338 9.22231C11.7821 9.06039 12.0833 8.86749 12.4455 8.68526C12.5308 8.64333 12.6192 8.60306 12.7139 8.56651C12.808 8.52941 12.9058 8.49357 13.0089 8.46306C13.214 8.40039 13.4357 8.35078 13.6679 8.32231C13.784 8.30851 13.9023 8.2989 14.0219 8.296C14.1415 8.29337 14.2622 8.29718 14.382 8.30772C14.8039 8.34706 15.329 8.47918 15.5843 8.84553C15.7508 9.08443 15.7731 9.39937 15.7173 9.6851C15.6204 10.1809 15.3141 10.61 14.9768 10.986C13.7894 12.3093 12.0701 13.2192 10.2895 13.3671C8.80657 13.4827 7.42378 12.8016 7.2259 11.1816C7.08444 10.0238 7.62798 8.87533 8.37684 7.9811C9.43386 6.7189 10.7501 5.6629 12.2496 5.00027C12.8021 4.75607 13.375 4.55086 13.962 4.39984C15.5229 3.99509 17.3681 3.8765 18.8789 4.53133C20.3269 5.15894 21.2498 6.57619 21.2206 8.15812C21.2119 8.62118 21.126 9.09345 20.9809 9.5651C20.8373 10.0371 20.6281 10.5069 20.3731 10.9596C20.1166 11.4122 19.8147 11.8484 19.4803 12.2586C17.8123 14.3066 15.2005 15.8669 12.7927 16.8902C9.88649 18.1254 4.3353 19.5857 2.25985 16.1905C1.17797 14.4206 1.57483 12.1566 2.16173 10.29C2.18295 10.2225 2.16197 10.1456 2.10303 10.0992C2.02687 10.0393 1.91659 10.0524 1.85667 10.1285C1.85667 10.1285 1.80659 10.1921 1.70954 10.3153C1.68506 10.3455 1.65906 10.3827 1.62957 10.4228C1.60032 10.4631 1.56828 10.5073 1.53346 10.5552C0.670475 11.7432 0.0936111 13.18 0.0100031 14.6519C-0.0669382 16.0066 0.2842 17.3958 1.06695 18.5042C2.00573 19.8337 3.50707 20.6921 5.08166 21.1037C7.57751 21.7561 10.3371 21.5359 12.7868 20.7945C13.3639 20.6198 13.9389 20.4162 14.5081 20.1823C15.0769 19.9477 15.6385 19.6804 16.1926 19.3857C18.2005 18.3177 20.1095 16.872 21.542 15.0934C23.0895 13.172 24.159 10.4227 23.9802 7.97518Z" fill="white"/>
</g>
<defs>
<clipPath id="clip0">
<path d="M0 0H24V24H0V0Z" fill="white"/>
</clipPath>
</defs>
</svg>
