<svg width="24" height="24" viewBox="0 0 24 24" fill="none" xmlns="http://www.w3.org/2000/svg">
<path d="M2.29247 0.921387V1.42679C2.29247 6.26303 2.78606 11.0863 4.22901 14.9985C5.67183 18.9108 8.10853 21.9404 11.9414 22.9936L12.0439 23.023L12.1494 22.9996C16.3534 22.1033 18.8207 19.0607 20.1738 15.1084C21.5268 11.1562 21.8334 6.26518 21.8334 1.42679V0.921481L21.334 0.993199C15.1528 1.87286 8.97431 1.87501 2.79351 0.993199L2.29242 0.921481L2.29247 0.921387ZM3.17578 1.92329C6.14025 2.32342 9.10523 2.52292 12.0703 2.52245V11.1724H20.2631C20.0332 12.4648 19.733 13.6918 19.3447 14.8257C18.0628 18.5702 15.8874 21.263 12.0718 22.1177C12.0714 22.1176 12.0708 22.1179 12.0704 22.1177V11.1724H4.05609C3.45281 8.31353 3.19936 5.13446 3.17578 1.92339V1.92329Z" fill="white"/>
</svg>
