<svg width="24" height="24" viewBox="0 0 24 24" fill="none" xmlns="http://www.w3.org/2000/svg">
<path d="M7.94671 0.76613L12.1568 4.12501L15.7969 4.32563L15.7486 5.20018L8.18408 4.78271L2.61627 4.55279L13.27 7.7417L4.00189 19.3081L3.3208 18.4805L1.01361 23.0098L12.671 13.5045L15.0996 14.0479L13.2817 15.9507L12.6797 15.4453L9.99468 19.3887L20.852 12.8189L15.375 11.2997L20.0728 7.46916C20.1259 7.49073 20.1806 7.51126 20.2369 7.52635C21.3302 7.81923 22.5696 6.73721 23.0053 5.11074C23.4412 3.48441 22.9078 1.92915 21.8144 1.63618C20.7211 1.34321 19.4817 2.42377 19.0459 4.05024C18.9771 4.30693 18.9332 4.56202 18.9111 4.81055L7.94671 0.766083V0.76613Z" fill="white"/>
</svg>
