<svg width="24" height="24" viewBox="0 0 24 24" fill="none" xmlns="http://www.w3.org/2000/svg">
<path d="M8.69147 1.72886C8.69147 1.72886 7.53506 1.99825 7.01541 2.45809C5.20669 4.05883 4.61278 5.62928 4.49606 7.40481L2.43497 9.60902C6.94533 8.76967 12.1696 8.58152 18.3997 8.62877C17.4152 7.96577 16.4605 7.42159 15.619 6.90311C14.9406 5.23923 14.0393 3.31262 12.5283 2.4325C11.8653 2.04625 11.1622 1.77512 10.4676 1.64359C9.96436 0.691698 8.80824 1.08957 8.69152 1.7289L8.69147 1.72886ZM4.9208 10.0688C5.87367 11.9728 7.57556 13.7988 9.12834 14.8975C9.98409 15.4895 10.8506 15.9124 11.5206 16.0292C12.0806 16.1343 12.6203 15.9628 12.8718 15.529L12.8719 15.5288V15.5287C13.2517 14.8584 13.5616 14.1822 13.8262 13.5038C14.5657 13.5852 15.3922 13.6229 15.6093 13.4486C15.952 13.1734 15.1991 10.8195 14.8567 10.1935C15 9.90189 15 9.59369 15 9.36939C13.1514 9.26655 7.93884 9.67047 4.9208 10.0688ZM20.9587 10.3533C20.3336 10.3675 19.7917 10.8153 19.3918 11.4159C18.9505 12.0785 18.6353 12.9787 18.5106 13.9966C18.3859 15.0144 18.4745 15.964 18.7426 16.7136C18.9437 17.2756 19.2645 17.7597 19.7108 18.0034L19.206 23.0975L20.0457 23.1807L20.5433 18.159C21.1065 18.0844 21.5953 17.6612 21.9635 17.1082C22.4048 16.4455 22.7199 15.5454 22.8446 14.5276C22.9693 13.5097 22.8807 12.56 22.6125 11.8105C22.3443 11.0609 21.8633 10.4499 21.1553 10.3631C21.0901 10.3551 21.0244 10.3518 20.9587 10.3533ZM21.0526 11.2006C21.3102 11.2322 21.6079 11.5072 21.8181 12.0948C22.0283 12.6822 22.118 13.5207 22.0072 14.4249C21.8964 15.3291 21.6069 16.1211 21.2611 16.6405C20.9153 17.1599 20.5601 17.355 20.3025 17.3234C20.045 17.2918 19.7474 17.0168 19.5372 16.4293C19.3269 15.8418 19.2374 15.0034 19.3481 14.0992C19.4589 13.195 19.7483 12.4029 20.0941 11.8835C20.329 11.5946 20.6889 11.1725 21.0526 11.2006ZM4.64869 11.3686C4.35605 11.7691 3.99361 12.1781 3.56536 12.5754C2.9977 13.1018 2.31548 13.5985 1.54045 13.9915C3.27956 14.3442 5.17392 15.0877 6.94092 15.9881C8.92495 16.9992 10.7273 18.1997 11.946 19.323L12.0545 18.1659C11.5207 17.5736 10.9517 17.0488 10.3731 16.5603C9.80348 16.3259 9.222 15.9883 8.64825 15.5913C6.94336 14.4117 5.32584 12.7359 4.64869 11.3686ZM20.801 11.8972C20.8027 12.9051 20.9423 14.0316 21.259 14.9268C21.5744 14.0013 21.588 12.3371 20.801 11.8972ZM14.3511 14.4486C14.2369 14.7106 14.1159 14.9697 13.9883 15.2255C14.3318 15.4797 14.529 15.722 14.64 15.9523C14.7862 16.2556 14.8036 16.5653 14.742 16.9505C14.637 17.6068 14.2633 18.4257 14.0708 19.3988C13.6466 19.9927 13.9974 22.0257 14.9269 22.2552C17.0212 22.7723 18.1946 20.5818 17.7213 20.0654C17.2612 19.5633 15.9589 19.1403 15.0063 19.1302C15.1961 18.4396 15.4652 17.7715 15.5752 17.0838C15.6533 16.5957 15.6373 16.0781 15.4001 15.5859C15.2006 15.1721 14.8575 14.7958 14.3511 14.4485V14.4486ZM1.56005 14.8616C1.33734 15.2036 1.09425 15.5874 0.84375 16.0059V23.1563H12.804C12.6671 22.4944 12.5411 21.811 12.3932 21.158C12.3628 20.8921 12.1463 20.7318 11.9686 20.5339C10.9394 19.3874 8.85947 17.9127 6.55772 16.7398C4.90959 15.8999 3.13866 15.2105 1.56005 14.8615V14.8616Z" fill="white"/>
</svg>
