<svg width="24" height="24" viewBox="0 0 24 24" fill="none" xmlns="http://www.w3.org/2000/svg">
<path d="M5.69089 0.858429C2.97308 1.63477 1.09433 3.27779 1.09424 5.18405C1.0941 7.08334 2.9601 8.72855 5.6616 9.50827C4.08411 8.47679 3.07316 6.91965 3.07325 5.18405C3.07325 3.43857 4.09747 1.88982 5.69094 0.858429H5.69089ZM18.6533 0.858429C20.2468 1.88982 21.271 3.43857 21.271 5.18405C21.2712 6.91965 20.2602 8.47679 18.6827 9.50827C21.3842 8.72855 23.2502 7.08334 23.25 5.18405C23.2499 3.27779 21.3712 1.63477 18.6533 0.858429H18.6533ZM7.65374 1.95263C5.62391 2.53238 4.22179 3.76037 4.22164 5.1841C4.22155 6.60254 5.61416 7.8317 7.6318 8.41407C6.4536 7.64373 5.69821 6.48024 5.69821 5.1841C5.69821 3.88037 6.46358 2.72302 7.65383 1.95263H7.65374ZM16.6904 1.95263C17.8806 2.72302 18.646 3.88037 18.646 5.1841C18.646 6.4802 17.8906 7.64373 16.7124 8.41407C18.7301 7.8317 20.1227 6.60259 20.1226 5.1841C20.1224 3.76037 18.7203 2.53238 16.6904 1.95263ZM11.9546 2.27199C10.8551 2.41388 9.8818 3.67946 9.8818 5.3027C9.8818 6.19773 10.1928 6.99052 10.6523 7.54098L11.1314 8.11519L10.3959 8.25291C9.79433 8.36541 9.35146 8.68369 8.97796 9.19332C8.6046 9.70294 8.32171 10.4075 8.12399 11.2163C7.76179 12.6984 7.68514 14.5055 7.67432 16.0884H9.62689L9.65619 16.4941L10.1542 23.1211H14.3891L14.8285 16.4971L14.8564 16.0884H16.7138C16.713 14.4875 16.6963 12.6556 16.3681 11.1621C16.1891 10.3479 15.9175 9.64369 15.539 9.13913C15.1604 8.63452 14.6957 8.31835 14.0228 8.21476L13.2728 8.09898L13.7474 7.50723C14.1871 6.95963 14.4829 6.17598 14.4829 5.3027C14.4829 3.57207 13.3919 2.27626 12.1816 2.27626C12.0503 2.27626 11.9704 2.26984 11.9545 2.2719L11.9546 2.27199ZM9.54346 2.84176C8.07252 3.26194 7.05613 4.15238 7.05613 5.1841C7.05613 6.21193 8.06535 7.10293 9.52738 7.52485C8.67369 6.96666 8.12699 6.12338 8.12699 5.1841C8.12713 4.23943 8.68105 3.40004 9.54355 2.84176H9.54346ZM14.8008 2.84176C15.6632 3.40004 16.2171 4.23938 16.2173 5.1841C16.2173 6.12334 15.6706 6.96662 14.8169 7.52485C16.2789 7.10298 17.2881 6.21198 17.2881 5.1841C17.2881 4.15238 16.2716 3.26199 14.8008 2.84176Z" fill="white"/>
</svg>
