<svg width="24" height="24" viewBox="0 0 24 24" fill="none" xmlns="http://www.w3.org/2000/svg">
<path d="M19.3769 2.27684L15.7939 7.97515L15.4072 6.44281L13.9907 10.6133L16.9277 9.23633L16.938 10.6162L22.8925 8.22851L19.5732 8.13617L21.8129 4.91651L18.369 6.75636L19.3768 2.27679L19.3769 2.27684ZM9.85404 3.78565L8.35404 4.46094L9.14501 7.06981L0.810028 10.8212L1.39897 12.1279L9.73386 8.375L11.1591 10.6939L13.4707 9.65375L12.4702 6.35642L9.85409 3.78565H9.85404ZM9.26215 11.5053V12.459H5.09468C5.8444 14.2781 7.49586 15.526 9.26215 15.9409V17.4863H12.0072C11.4392 18.9173 10.4367 20.0965 9.26647 21.1235H8.07279V21.9995H21.4012V21.1236H20.1166C18.7697 20.0973 17.7702 18.9196 17.2279 17.4863H20.2119V16.1181C21.1376 15.7902 22.0634 15.2036 22.9892 14.3984C22.0605 13.577 21.1503 13.1211 20.2119 12.9013V11.5054H9.2622L9.26215 11.5053Z" fill="white"/>
</svg>
