<svg width="24" height="24" viewBox="0 0 24 24" fill="none" xmlns="http://www.w3.org/2000/svg">
<path d="M12.7734 0.886216C12.1746 0.894185 11.5439 1.00589 10.8823 1.24219C9.46833 3.83484 7.68014 6.90956 4.98919 9.60937C3.99591 10.6059 3.15028 11.7159 2.53856 12.8115C2.59922 13.1074 2.77219 13.3576 3.04106 13.6274C3.55631 14.1446 4.48762 14.6408 5.60011 15.186C7.77103 16.2499 10.629 17.5481 12.4614 20.2704L21.6313 20.2719C20.6845 16.9516 16.9309 15.5319 14.1752 16.3372C14.1718 16.3387 14.1684 16.3403 14.1649 16.3417C14.0894 16.3714 14.0116 16.395 13.932 16.415C13.9309 16.4152 13.9302 16.4161 13.929 16.4164C13.5137 16.5197 13.0469 16.4951 12.5638 16.3973C11.4018 16.162 10.0907 15.4741 9.68841 14.2558C8.34708 10.193 10.4689 5.83036 13.352 3.78951C14.4331 3.02414 15.6517 2.57789 16.8427 2.64248C16.8495 2.64286 16.8563 2.64356 16.8632 2.64389C15.7293 1.57795 14.3633 0.864982 12.7733 0.886076L12.7734 0.886216ZM16.6055 3.51122C15.7049 3.51168 14.7579 3.867 13.8574 4.5044C11.296 6.31762 9.32686 10.3649 10.5205 13.9805C10.7608 14.7084 11.7978 15.3474 12.7368 15.5377C13.2063 15.6327 13.6377 15.6088 13.8486 15.5244C13.954 15.4822 13.9973 15.4381 14.017 15.4043C14.0368 15.3705 14.055 15.3263 14.0287 15.1992C13.6031 13.1289 13.9002 11.2331 15.085 9.83343C16.1906 8.52736 18.0265 7.7024 20.5884 7.45753C19.8846 5.24761 18.832 4.11881 17.7143 3.70612C17.414 3.59512 17.1034 3.5324 16.7856 3.51562C16.726 3.51248 16.6655 3.51122 16.6054 3.51122H16.6055ZM2.05219 13.7916C1.79883 14.38 1.62394 14.952 1.54102 15.4878C1.87748 16.789 3.97373 18.0861 5.81105 18.3633C5.89087 18.0833 6.08442 17.8254 6.29292 17.6953C8.68401 19.0474 10.3326 20.5408 11.0742 22.4297H21.8364C21.8691 21.9791 21.857 21.5526 21.8071 21.1479L12.2299 21.1465H11.9896L11.8607 20.9429C10.2011 18.3378 7.45777 17.0719 5.2148 15.9727C4.09331 15.4231 3.09745 14.9257 2.41987 14.2456C2.28028 14.1055 2.15653 13.9538 2.05219 13.7916Z" fill="white"/>
</svg>
