<svg width="24" height="24" viewBox="0 0 24 24" fill="none" xmlns="http://www.w3.org/2000/svg">
<path d="M6.32467 1.97816C5.94807 1.98331 5.04043 2.13392 4.00792 2.30127L4.36435 3.33378C6.42395 3.05849 6.41176 3.00313 6.56232 3.21322C8.06889 5.31505 9.35621 7.34516 10.0628 9.54242C11.591 9.65539 13.4159 9.97086 14.671 10.6605C16.2687 8.95705 18.8745 8.0443 21.0225 7.2995C21.5923 7.10188 22.2059 7.64638 23.0132 7.77144L23.2405 6.96219C23.0121 6.64273 21.937 6.18467 21.4903 6.17853C21.3011 6.17591 20.7639 6.32619 20.6011 6.38202C17.9302 6.89773 15.7558 6.99992 12.998 7.90897C11.253 6.13175 9.42592 4.37394 7.32934 2.57445C6.89631 2.20274 6.87507 1.9707 6.32467 1.9782V1.97816ZM10.2561 10.3977C9.55839 11.6249 9.11551 11.9211 8.15992 12.5619C7.32029 12.3425 6.48254 12.119 5.49939 12.2345C4.51421 12.103 4.11254 12.4677 2.91723 12.886C2.55503 12.7641 2.12218 12.9328 1.84389 13.0514C1.38653 13.2846 0.84348 13.6271 0.96423 14.204C1.14934 14.7998 1.91218 14.621 2.26056 14.4713C2.55329 14.3316 2.82564 14.0599 3.02729 13.846C4.02948 13.8726 4.47451 13.84 5.51111 13.3813C6.29593 13.7001 7.28846 13.8269 8.17806 13.8488C8.23291 13.808 8.28932 13.7692 8.34714 13.7327C8.86164 13.4093 9.48559 13.2857 10.0493 13.5091C10.613 13.7326 10.9748 14.2471 11.1168 14.8308C11.2007 15.1754 11.2143 15.5506 11.1569 15.9342C11.3796 16.559 11.5488 17.1328 11.9494 17.8988C11.706 18.9666 11.7833 20.0215 11.8434 21.1024L10.7755 21.5031L10.5721 22.022H13.8633L13.4819 21.464L12.7146 21.077C12.8788 19.9985 13.1659 18.9325 13.0074 17.8217C13.0331 16.9918 12.7594 16.162 12.5973 15.3321C13.5959 14.1022 13.0836 13.2349 13.7832 11.8968C13.8844 11.7038 13.9973 11.5172 14.1215 11.3382C12.8388 10.8066 11.5675 10.4551 10.2561 10.3977H10.2561ZM9.40529 14.234C9.21526 14.2397 9.00957 14.3072 8.79629 14.4412C8.45514 14.6557 8.12209 15.0415 7.91692 15.5411C7.71179 16.0407 7.67912 16.5456 7.77329 16.9326C7.86746 17.3197 8.06814 17.5708 8.33753 17.6775C8.60692 17.7843 8.92871 17.7405 9.26987 17.526C9.61112 17.3115 9.94421 16.9257 10.1494 16.4261C10.3545 15.9265 10.3871 15.4217 10.2929 15.0346C10.1987 14.6475 9.99812 14.3964 9.72878 14.2896C9.62776 14.2496 9.51934 14.2307 9.40534 14.234H9.40529Z" fill="white"/>
</svg>
