<svg width="24" height="24" viewBox="0 0 24 24" fill="none" xmlns="http://www.w3.org/2000/svg">
<path d="M15.044 0.622483C14.2637 2.24361 13.2409 3.44234 12.0865 3.44234C10.937 3.44234 9.8817 2.25758 9.10259 0.648921C9.11974 2.49383 8.64743 4.90911 7.65237 5.57666C6.6573 6.24416 5.32549 5.01406 3.95655 4.07075C4.77476 5.66638 5.92976 7.23482 5.35249 8.39638C4.78015 9.54838 2.5788 10.082 0.999023 10.0663C2.37424 10.9706 4.69474 12.2134 4.69484 13.5439C4.69493 14.8744 2.37434 16.0616 0.999023 16.9658C2.5788 16.9502 4.7801 17.5101 5.35259 18.6621C5.92573 19.8157 4.9293 21.3016 3.77055 22.6728C5.87177 21.9503 6.82409 22.404 7.77246 23.1796H9.26074C7.2573 21.5197 5.88284 18.1252 5.88284 14.2001C5.88274 8.6398 8.64471 4.12639 12.0425 4.12639C15.4404 4.12639 18.2021 8.63999 18.2021 14.2002C18.2021 18.1255 16.8279 21.5198 14.8242 23.1797H16.1045C17.0349 22.4944 17.97 21.9773 20.3086 22.7447C19.0789 21.3261 18.3305 19.8157 18.9038 18.6621C19.4783 17.5059 21.5596 16.9459 23.1475 16.9658C21.7694 16.0612 19.6158 14.8759 19.6158 13.5439C19.6158 12.212 21.7693 10.9709 23.1474 10.0664C21.5596 10.0863 19.4784 9.55255 18.9038 8.39647C18.3266 7.23491 19.3717 5.66647 20.1899 4.07085C18.8211 5.01397 17.4907 6.24514 16.4941 5.57666C15.4974 4.90808 15.023 2.47681 15.0439 0.622437L15.044 0.622483ZM11.811 5.01702C10.8941 5.13622 10.0606 6.21533 10.0606 7.61422C10.0606 8.38518 10.3264 9.06669 10.7168 9.5376L11.1929 10.1103L10.462 10.248C9.95501 10.3434 9.58338 10.6107 9.26524 11.0478C8.94696 11.4849 8.70349 12.0952 8.53277 12.7983C8.2241 14.0699 8.15412 15.622 8.14324 16.9922H9.8351L9.86585 17.3979L10.2935 23.1431H13.8648L14.2443 17.4009L14.2706 16.9921H15.882C15.8808 15.605 15.8614 14.0312 15.5816 12.7499C15.4272 12.0424 15.1932 11.4329 14.8712 11.0009C14.5492 10.5689 14.1618 10.3026 13.5925 10.2143L12.8453 10.0986L13.317 9.50825C13.6906 9.03969 13.944 8.36638 13.944 7.61422C13.9439 6.1228 13.0119 5.02142 12.0015 5.02142C11.8824 5.02142 11.8159 5.0166 11.8126 5.01702H11.8112H11.811Z" fill="white"/>
</svg>
