<svg width="24" height="24" viewBox="0 0 24 24" fill="none" xmlns="http://www.w3.org/2000/svg">
<path d="M9.48799 0.987208C9.38538 0.990254 9.26698 1.01425 9.1226 1.06422C6.99574 1.80054 3.75799 3.73816 0.888916 4.60605C1.39788 4.92138 1.95246 5.19963 2.52678 5.42027C3.16878 5.12562 3.79582 4.8326 4.32743 4.53865C4.97838 4.17874 5.48112 3.80402 5.69046 3.49807L6.3094 3.92158C5.96581 4.42371 5.38198 4.81263 4.69034 5.19499C4.34642 5.38516 3.97428 5.57046 3.59028 5.75299C3.94254 5.83779 4.2964 5.89784 4.64651 5.92676C4.80485 5.93988 4.96207 5.94691 5.11793 5.94813C5.86067 5.48754 6.56346 4.89298 6.78996 4.46543L7.45268 4.81643C7.29031 5.12299 7.04585 5.41765 6.7527 5.69276C7.48535 5.43504 8.1491 4.96919 8.69988 4.2348L9.03903 3.7826L9.32384 4.27085C9.54434 4.64885 9.84148 4.96512 10.1786 5.23732C10.4285 5.19907 10.6489 5.17291 10.8749 5.16002V3.70708C10.4202 3.3641 10.1249 2.81974 10.1249 2.20985C10.1248 1.96354 10.1737 1.71966 10.2687 1.49243C10.1497 1.32588 10.0269 1.19486 9.90345 1.11405C9.80163 1.04735 9.70071 1.00225 9.57809 0.990161C9.54814 0.987336 9.51806 0.986349 9.48799 0.987208ZM14.4688 0.987208C14.4528 0.987676 14.4371 0.988614 14.4218 0.990161C14.2991 1.00225 14.1982 1.04735 14.0964 1.11405C13.9729 1.19486 13.8501 1.32593 13.7311 1.49243C13.8262 1.71966 13.8751 1.96354 13.8749 2.20985C13.8749 2.81974 13.5796 3.3641 13.1249 3.70708V5.16002C13.3594 5.17357 13.615 5.20371 13.8213 5.23732C14.1584 4.96512 14.4555 4.64885 14.676 4.27085L14.9608 3.7826L15.2999 4.2348C15.8507 4.96919 16.5145 5.43504 17.2472 5.69276C16.954 5.41765 16.7095 5.12299 16.5472 4.81643L17.2099 4.46543C17.4364 4.89302 18.1392 5.48754 18.8819 5.94809C19.0393 5.9469 19.1965 5.9398 19.3534 5.9268C19.7035 5.89779 20.0573 5.83774 20.4096 5.75299C20.0256 5.57046 19.6534 5.38516 19.3095 5.19499C18.6179 4.81263 18.0341 4.42371 17.6905 3.92158L18.3094 3.49807C18.5187 3.80402 19.0214 4.17874 19.6724 4.53869C20.204 4.8326 20.8311 5.12557 21.4731 5.42032C22.0474 5.19963 22.602 4.92138 23.1109 4.60605C20.2419 3.73816 17.0041 1.80058 14.8773 1.06422C14.7123 1.00708 14.5812 0.98402 14.4688 0.987254V0.987208ZM11.9999 1.12502C11.3741 1.12502 10.8749 1.62424 10.8749 2.25002C10.8749 2.8758 11.3741 3.37502 11.9999 3.37502C12.6257 3.37502 13.1249 2.8758 13.1249 2.25002C13.1249 1.62424 12.6257 1.12502 11.9999 1.12502ZM11.6249 4.04683V5.20184C11.7559 5.23024 11.8949 5.2773 11.9999 5.3373C12.1256 5.26779 12.2474 5.23109 12.3749 5.20184V4.04683C12.2537 4.07168 12.1282 4.0848 11.9999 4.0848C11.8716 4.0848 11.7462 4.07168 11.6249 4.04683ZM11.0368 5.90562C10.9637 5.90649 10.8906 5.90962 10.8177 5.91499C10.2148 5.95915 9.4676 6.15312 9.16052 6.29866C8.46176 6.62988 8.16921 6.94512 8.02545 7.2356C7.88168 7.52613 7.87493 7.8357 7.87493 8.20985C7.87493 8.64734 8.07645 8.97007 8.44427 9.27917C8.81215 9.58826 9.34226 9.84828 9.88803 10.0643C10.8955 10.5932 11.9581 11.1397 12.7965 11.7511C13.0269 11.914 13.3207 12.0163 13.5464 12.1344C13.7675 11.902 13.8749 11.6877 13.8749 11.4911C13.8749 11.3739 13.8437 11.2444 13.7862 11.1076C13.2137 10.0256 12.1373 9.50374 11.0059 8.88007L11.0033 8.88303C10.5171 8.69445 10.0651 8.58485 9.74993 8.58485L9.58221 7.87437C10.3244 7.50331 10.8682 7.1922 11.1918 6.89576C11.5085 6.6057 11.6261 6.36827 11.6235 5.99051C11.4356 5.90819 11.2224 5.90374 11.0368 5.90566V5.90562ZM12.9631 5.90562C12.7674 5.91223 12.5272 5.90862 12.3764 5.99046C12.3737 6.36827 12.4914 6.6057 12.8081 6.89576C13.1316 7.1922 13.6755 7.50331 14.4176 7.87437L14.2499 8.58485C13.8767 8.58485 13.3119 8.73809 12.7253 8.99473C13.1964 9.29623 13.644 9.64751 14.0143 10.1015C14.0469 10.0889 14.0793 10.0772 14.1119 10.0643C14.6576 9.84828 15.1877 9.58826 15.5556 9.27917C15.9234 8.97007 16.1249 8.64729 16.1249 8.20985C16.1249 7.8357 16.1182 7.52613 15.9745 7.2356C15.8306 6.94512 15.5381 6.62988 14.8393 6.29866C14.5323 6.15312 13.7851 5.95915 13.1822 5.91499C13.1092 5.90962 13.0362 5.90649 12.9631 5.90562ZM11.9999 7.11424C11.9105 7.23534 11.8095 7.3474 11.6983 7.44884C11.6745 7.47068 11.6498 7.49224 11.6249 7.51367V8.31757C11.7517 8.37533 11.8769 8.4366 12.0003 8.50132C12.1235 8.43669 12.2484 8.37541 12.3749 8.31757V7.51367C12.3501 7.49243 12.3257 7.47082 12.3015 7.44884C12.1903 7.3474 12.0893 7.23534 11.9999 7.11424ZM10.2404 11.0469C10.1657 11.2062 10.1249 11.3567 10.1249 11.4911C10.1249 11.7177 10.267 11.9676 10.5619 12.2418C10.8568 12.516 11.2823 12.7887 11.7191 13.0415C12.1558 13.2944 12.6018 13.5281 12.9599 13.7605C13.139 13.8768 13.2969 13.9911 13.4284 14.1266C13.56 14.2621 13.6874 14.4364 13.6874 14.6786C13.6874 14.8778 13.5866 15.0672 13.4674 15.185C13.3482 15.303 13.2163 15.3755 13.0796 15.4413C12.9721 15.4931 12.8588 15.5399 12.744 15.5865C13.0514 15.8125 13.3344 16.0578 13.5627 16.3005C13.6902 16.2421 13.8191 16.1835 13.9462 16.1221C14.2735 15.9641 14.582 15.788 14.7867 15.5951C14.9914 15.4022 15.0937 15.2215 15.0937 14.9599C15.0937 14.4937 14.925 14.1421 14.6443 13.8209C14.3636 13.4997 13.965 13.2251 13.5492 12.9891C13.1334 12.7531 12.7057 12.5572 12.3568 12.3592C12.1824 12.2602 12.0266 12.1626 11.8924 12.0367C11.8855 12.0302 11.8788 12.023 11.872 12.0163C11.3806 11.6863 10.7471 11.3009 10.2404 11.0469ZM10.3532 13.0459C9.97315 13.269 9.61413 13.525 9.35553 13.8209C9.07484 14.142 8.90618 14.4937 8.90618 14.9599C8.90618 15.2216 9.00846 15.4022 9.21317 15.5951C9.41782 15.788 9.72635 15.9641 10.0536 16.1221C10.1774 16.1818 10.3021 16.239 10.4258 16.2959C11.3188 16.7547 12.1461 17.1916 12.9564 17.4122C13.1455 17.3478 13.1836 17.1716 13.1409 16.9561C12.4445 16.2557 11.7436 15.8404 10.9203 15.4413C10.7835 15.3755 10.6516 15.303 10.5324 15.185C10.4133 15.0672 10.3124 14.8778 10.3124 14.6786C10.3124 14.4364 10.4399 14.2621 10.5714 14.1266C10.7029 13.9911 10.8608 13.8768 11.0399 13.7605C11.1076 13.7169 11.1759 13.6744 11.2449 13.633C10.9388 13.4534 10.6312 13.261 10.3532 13.0459V13.0459ZM11.9999 14.0624C11.8663 14.1381 11.7393 14.211 11.6249 14.2799V14.9175C11.6601 14.9337 11.6954 14.951 11.7308 14.9682C11.8173 15.0039 11.9066 15.0413 11.9998 15.0836C12.1316 15.0239 12.2586 14.9716 12.3749 14.9248V14.28C12.2509 14.2058 12.1259 14.1332 11.9999 14.0624ZM11.1658 17.5226C11.1934 17.7215 11.286 17.9032 11.4388 18.092C11.6231 18.3196 11.8921 18.5415 12.1758 18.751C12.4595 18.9605 12.7554 19.156 13.0028 19.3681C13.2502 19.5802 13.4999 19.827 13.4999 20.2099C13.4999 20.6739 13.2271 21.0505 12.892 21.4755C12.5569 21.9004 12.1256 22.3444 11.6962 22.7539C11.6003 22.8455 11.5094 22.9258 11.4147 23.0131C11.8005 22.8111 12.2008 22.5663 12.578 22.292C13.6279 21.5283 14.4374 20.5268 14.4374 19.8349C14.4374 19.6255 14.3591 19.4578 14.2039 19.2744C14.0486 19.0909 13.8162 18.9101 13.5668 18.7362C13.3173 18.5623 13.0536 18.3972 12.8279 18.2034C12.8018 18.1809 12.7757 18.1574 12.7498 18.1333C12.1411 17.9715 11.6299 17.7555 11.1658 17.5226ZM10.7967 18.4873C10.6761 18.5711 10.553 18.6527 10.4331 18.7362C10.1837 18.9101 9.95121 19.0909 9.79596 19.2744C9.64076 19.4578 9.56243 19.6255 9.56243 19.8349C9.56243 20.1777 9.74824 20.6009 10.0929 21.0353C10.3922 21.4127 10.8023 21.7923 11.2566 22.136C11.3367 22.059 11.416 21.9812 11.4946 21.9028C11.3635 21.7608 11.2388 21.619 11.1256 21.4793C10.7813 21.0545 10.4999 20.6794 10.4999 20.2099C10.4999 19.827 10.7497 19.5802 10.997 19.3681C11.1135 19.2683 11.2413 19.1721 11.3729 19.0764C11.1892 18.9237 11.0111 18.7555 10.856 18.5639C10.8358 18.539 10.8161 18.5133 10.7967 18.4873ZM11.9997 19.5498C11.8639 19.6474 11.7343 19.7406 11.6249 19.8251V20.8995C11.6514 20.9351 11.6789 20.971 11.7082 21.0072C11.7996 21.12 11.902 21.2373 12.0114 21.3567C12.1164 21.2386 12.2152 21.1226 12.3032 21.011C12.3283 20.9791 12.3519 20.9476 12.3749 20.9162V19.8251C12.265 19.7402 12.1363 19.648 11.9997 19.5498Z" fill="white"/>
</svg>
