<svg width="24" height="24" viewBox="0 0 24 24" fill="none" xmlns="http://www.w3.org/2000/svg">
<path d="M9.56509 10.0268C8.99884 9.86182 8.45806 9.72119 7.94275 9.60494C7.73037 8.9328 7.62317 8.23187 7.62494 7.52697C7.62494 4.4515 9.60166 1.95822 12.0401 1.95822C14.4785 1.95822 16.4534 4.44916 16.4534 7.5251C16.4548 8.19692 16.3575 8.86531 16.1646 9.50885C15.5234 9.64322 14.8403 9.81588 14.1152 10.0268C13.084 10.3278 12.2501 10.6259 11.839 10.7792C11.4303 10.6259 10.5963 10.3278 9.56509 10.0268ZM3.56744 14.0084C3.05603 14.0084 2.55611 14.16 2.13089 14.4442C1.70568 14.7283 1.37427 15.1321 1.17859 15.6046C0.982901 16.0771 0.931724 16.597 1.03153 17.0986C1.13133 17.6002 1.37764 18.0609 1.73929 18.4225C2.10094 18.7841 2.5617 19.0303 3.06329 19.13C3.56489 19.2297 4.08479 19.1784 4.55724 18.9827C5.02969 18.7869 5.43348 18.4554 5.71753 18.0302C6.00159 17.6049 6.15316 17.1049 6.15306 16.5935C6.15294 15.9079 5.88047 15.2503 5.39559 14.7655C4.9107 14.2807 4.25311 14.0084 3.56744 14.0084ZM20.4326 14.0084C19.9212 14.0084 19.4213 14.16 18.996 14.4442C18.5708 14.7283 18.2394 15.1321 18.0437 15.6046C17.8481 16.0771 17.7969 16.597 17.8967 17.0986C17.9965 17.6002 18.2428 18.0609 18.6044 18.4225C18.9661 18.7841 19.4269 19.0303 19.9285 19.13C20.43 19.2297 20.9499 19.1784 21.4224 18.9827C21.8948 18.7869 22.2986 18.4554 22.5827 18.0302C22.8667 17.6049 23.0183 17.1049 23.0182 16.5935C23.0181 15.9079 22.7457 15.2505 22.2609 14.7657C21.7761 14.2809 21.1187 14.0085 20.4331 14.0084H20.4326ZM17.0974 16.5935C17.0982 15.9486 17.2856 15.3177 17.6371 14.777C17.9887 14.2363 18.4892 13.809 19.0784 13.5467V9.9115C16.0554 9.9115 11.839 11.5821 11.839 11.5821C11.839 11.5821 7.62259 9.9115 4.59963 9.9115V13.4234C5.26875 13.6414 5.85174 14.0655 6.26516 14.635C6.67858 15.2046 6.90122 15.8903 6.90122 16.594C6.90122 17.2978 6.67858 17.9835 6.26516 18.553C5.85174 19.1225 5.26875 19.5466 4.59963 19.7646V20.0928C7.62259 20.0928 11.839 22.0418 11.839 22.0418C11.839 22.0418 16.0573 20.0942 19.0784 20.0942V19.6404C18.4892 19.3781 17.9887 18.9507 17.6371 18.41C17.2856 17.8694 17.0982 17.2385 17.0974 16.5935Z" fill="white"/>
</svg>
