<svg width="24" height="24" viewBox="0 0 24 24" fill="none" xmlns="http://www.w3.org/2000/svg">
<path d="M12.0645 0.952179C11.4355 0.952179 10.8424 1.31241 10.3799 1.97171C9.91731 2.63096 9.61379 3.57802 9.61379 4.63186C9.61379 5.68561 9.91731 6.63127 10.3799 7.29052C10.8425 7.94986 11.4355 8.31005 12.0645 8.31005C12.6934 8.31005 13.285 7.94986 13.7476 7.29052C14.2102 6.63132 14.5152 5.68571 14.5152 4.63186C14.5152 3.57811 14.2102 2.63101 13.7476 1.97171C13.2851 1.31246 12.6935 0.952179 12.0646 0.952179H12.0645ZM5.0215 2.97071C4.0697 2.99762 3.89668 3.6219 3.53181 4.33149C2.43971 6.45511 0.927246 12.0541 0.927246 12.0541L8.44928 11.7993L9.81451 18.249L8.7467 23.2192H15.7354L14.691 18.2504L15.8277 11.8051L23.2119 12.0541C23.212 12.0541 21.6995 6.45507 20.6075 4.33149C20.2425 3.6218 20.0695 2.99757 19.1177 2.97071C18.2788 2.97071 17.5987 3.69971 17.5987 4.59811C17.5987 5.49652 18.2788 6.22561 19.1177 6.22561C19.2925 6.22561 19.458 6.18418 19.6143 6.12596L19.9864 9.61374L14.5049 7.73438C14.4915 7.75407 14.479 7.77502 14.4654 7.79438C13.8824 8.62519 13.0308 9.1861 12.0644 9.1861C11.0981 9.1861 10.2465 8.62519 9.66357 7.79438C9.65059 7.77586 9.63826 7.75613 9.62551 7.73728L4.15286 9.61378L4.5249 6.126C4.68132 6.18422 4.84679 6.22561 5.02154 6.22561C5.86051 6.22561 6.54057 5.49657 6.54057 4.59811C6.54057 3.69976 5.86056 2.97071 5.02159 2.97071H5.0215Z" fill="white"/>
</svg>
