<svg width="24" height="24" viewBox="0 0 24 24" fill="none" xmlns="http://www.w3.org/2000/svg">
<path d="M12.3457 0.908219C11.7941 0.908219 11.2828 1.19589 10.8853 1.71541C10.5446 2.16044 10.3042 2.77197 10.2421 3.4615C10.7643 3.23059 11.2956 3.09072 11.8271 3.03963V3.90236C11.3131 3.96691 10.7955 4.13711 10.2729 4.41939C10.3651 5.00472 10.5871 5.52105 10.8852 5.91067C11.2827 6.43014 11.794 6.71786 12.3456 6.71786C12.8972 6.71786 13.41 6.43014 13.8075 5.91067C14.0966 5.53286 14.313 5.03566 14.4096 4.47217C13.8438 4.15192 13.2755 3.95669 12.703 3.89355V3.03517C13.2972 3.08613 13.8852 3.24686 14.4535 3.51274C14.3994 2.8022 14.1565 2.17145 13.8076 1.71536C13.41 1.19589 12.8973 0.908173 12.3456 0.908173L12.3457 0.908219ZM10.1616 6.40431C9.67214 6.62931 9.29958 6.92847 9.10256 7.2701L9.08499 7.26564L7.13381 10.2862L4.75931 9.25633C3.38236 8.5008 1.87303 10.3813 3.32381 11.2105L7.75209 13.2759L9.53475 10.9292C10.4113 12.509 10.3208 14.0899 9.02053 15.6708C8.62941 15.6408 8.25319 15.6259 7.89708 15.6284C6.00745 15.6414 4.66542 16.109 4.43269 16.9774L4.43409 16.9775C4.22597 17.7547 4.94934 18.6964 6.26813 19.5688C8.87789 20.9421 10.7391 21.372 13.626 21.5537H13.6992L13.7198 21.5595C13.7396 21.5607 13.7583 21.5628 13.7783 21.5639L13.7768 21.5786L18.0923 22.9249L17.0521 20.4068L8.60602 17.6016L8.88141 16.771L12.2475 17.8887L15.6152 16.771L15.8906 17.6016L13.6362 18.3502L18.063 19.8208C19.633 18.8812 20.5253 17.8301 20.2969 16.9776C20.018 15.9365 18.1441 15.4726 15.6445 15.6753C14.4074 14.1183 14.4166 12.5623 15.1978 11.0054L16.9219 13.276L21.3502 11.2105C22.8009 10.3814 21.2916 8.5008 19.9146 9.25638L17.5386 10.2861L15.5888 7.26564H15.5859C15.3883 6.92599 15.0171 6.62833 14.5298 6.40431C14.5205 6.41697 14.5115 6.42995 14.502 6.44242C13.9738 7.13266 13.2067 7.59377 12.3457 7.59377C11.4848 7.59377 10.7176 7.13266 10.1895 6.44238C10.1799 6.42995 10.171 6.41692 10.1616 6.40431ZM7.17633 20.9824L6.39258 22.8809L9.66802 21.8599C8.84189 21.6455 8.03067 21.3615 7.17633 20.9824Z" fill="white"/>
</svg>
