<svg width="20" height="20" viewBox="0 0 20 20" fill="none" xmlns="http://www.w3.org/2000/svg">
<g clip-path="url(#clip0)">
<path fill-rule="evenodd" clip-rule="evenodd" d="M5.75735 4.34315C5.36682 3.95262 4.73366 3.95262 4.34313 4.34315C3.95261 4.73367 3.95261 5.36683 4.34313 5.75736L8.58577 10L4.34313 14.2426C3.95261 14.6332 3.95261 15.2663 4.34313 15.6569C4.73366 16.0474 5.36682 16.0474 5.75735 15.6569L9.99999 11.4142L14.2426 15.6569C14.6332 16.0474 15.2663 16.0474 15.6568 15.6569C16.0474 15.2663 16.0474 14.6332 15.6568 14.2426L11.4142 10L15.6568 5.75736C16.0474 5.36683 16.0474 4.73367 15.6568 4.34315C15.2663 3.95262 14.6332 3.95262 14.2426 4.34315L9.99999 8.58579L5.75735 4.34315Z" fill="white"/>
</g>
<defs>
<clipPath id="clip0">
<rect width="20" height="20" fill="white"/>
</clipPath>
</defs>
</svg>
