<svg width="20" height="20" viewBox="0 0 20 20" fill="none" xmlns="http://www.w3.org/2000/svg">
<path d="M19.4673 7.07359L13.5583 0.567423C13.2148 0.189235 12.744 9.3785e-05 12.2731 3.48341e-08C11.802 -9.37153e-05 11.3309 0.189047 10.9872 0.567423L0.532671 12.0784C0.189077 12.4567 0 12.9591 0 13.4938C0 14.0285 0.187756 14.5294 0.536677 14.9136L4.60671 19.2879C5.03374 19.7468 5.59748 20 6.19496 20H9.25339C9.85488 20 10.4217 19.7439 10.8505 19.2781L19.4673 9.90442C19.8109 9.52614 20 9.02369 20 8.48903C20 7.95437 19.8109 7.45192 19.4673 7.07359ZM9.57342 17.8555C9.48597 17.9502 9.37543 18 9.25339 18H6.19496C6.07377 18 5.96412 17.9511 5.87715 17.8574L1.8182 13.5L6.53587 8.31053L12.4099 14.7724L9.57342 17.8555Z" fill="white"/>
</svg>
