<svg width="20" height="20" viewBox="0 0 20 20" fill="none" xmlns="http://www.w3.org/2000/svg">
<path d="M4.25114 10.8069C4.13659 10.6919 3.97104 10.6485 3.81256 10.6888C3.65587 10.731 3.53336 10.8525 3.49117 11.0092C3.20174 12.0763 2.47467 13.249 1.49677 14.2265C1.3192 14.404 1.3192 14.6911 1.49635 14.8686L5.13268 18.5101C5.21791 18.5957 5.33378 18.6436 5.4545 18.6436C5.57523 18.6436 5.69067 18.5957 5.77589 18.5105C6.75558 17.5312 7.93056 16.8044 8.99986 16.5165C9.15655 16.4743 9.27864 16.3514 9.32036 16.1948C9.36255 16.0381 9.31767 15.8709 9.20274 15.7564L4.25114 10.8069Z" fill="white"/>
<path d="M19.7754 2.4678C19.7572 2.43942 19.7363 2.41321 19.7128 2.38969L17.6256 0.296297C17.6016 0.272348 17.575 0.251042 17.5461 0.232846C17.0658 -0.0702216 16.6149 -0.0928494 16.0698 0.256368L4.54237 9.0861C4.43848 9.16596 4.37413 9.28621 4.36527 9.41712C4.35683 9.54756 4.40477 9.67536 4.49754 9.76809L10.2393 15.5074C10.3249 15.5931 10.4404 15.6406 10.5607 15.6406C10.5704 15.6406 10.5807 15.6401 10.5904 15.6397C10.7214 15.6308 10.8417 15.5665 10.9216 15.4627L19.7754 3.90984C19.9263 3.67069 20 3.43461 20 3.18882C20 2.94302 19.9263 2.70694 19.7754 2.4678Z" fill="white"/>
<path d="M1.76271 16.4215C1.67748 16.3359 1.56162 16.288 1.44132 16.288H1.44089C1.32017 16.288 1.20473 16.3359 1.1195 16.4211L0.509573 17.0308C0.181108 17.3591 7.50293e-07 17.7957 7.50293e-07 18.2598C-0.000425385 18.7248 0.180682 19.1618 0.509147 19.4902C0.837612 19.819 1.27487 20 1.73961 20H1.74051C2.20525 20 2.64204 19.819 2.97055 19.4906L3.57868 18.8827C3.75625 18.7053 3.75625 18.4182 3.57911 18.2407L1.76271 16.4215Z" fill="white"/>
</svg>
