<svg width="20" height="20" viewBox="0 0 20 20" fill="none" xmlns="http://www.w3.org/2000/svg">
<g clip-path="url(#clip0)">
<path fill-rule="evenodd" clip-rule="evenodd" d="M10.7088 13.2912C10.7082 13.2917 10.7076 13.2923 10.707 13.2929C10.3165 13.6834 9.68335 13.6834 9.29283 13.2929L5.05019 9.05023C4.65966 8.6597 4.65966 8.02654 5.05019 7.63601C5.44071 7.24549 6.07388 7.24549 6.4644 7.63601L8.99994 10.1715L8.99993 3.00003C8.99993 2.44775 9.44765 2.00003 9.99993 2.00003C10.5522 2.00003 10.9999 2.44775 10.9999 3.00003L10.9999 10.1715L13.5355 7.63598C13.926 7.24545 14.5592 7.24545 14.9497 7.63598C15.3402 8.0265 15.3402 8.65967 14.9497 9.05019L10.7088 13.2912ZM17 15C17 14.4477 16.5523 14 16 14C15.4477 14 15 14.4477 15 15V16L4.99998 16L4.99998 15C4.99998 14.4477 4.55226 14 3.99998 14C3.44769 14 2.99998 14.4477 2.99998 15L2.99998 17C2.99998 17.5523 3.44769 18 3.99998 18L16 18C16.5523 18 17 17.5523 17 17L17 15Z" fill="white"/>
</g>
<defs>
<clipPath id="clip0">
<rect width="20" height="20" fill="white"/>
</clipPath>
</defs>
</svg>
