<svg width="20" height="20" viewBox="0 0 20 20" fill="none" xmlns="http://www.w3.org/2000/svg">
<path d="M17.9167 7.91668C16.768 7.91668 15.8334 8.85133 15.8334 10C15.8334 11.1487 14.8987 12.0833 13.75 12.0833C12.6013 12.0833 11.6667 11.1487 11.6667 10C11.6667 9.51578 12.1436 8.74105 12.6489 7.92074C13.3602 6.76555 14.1667 5.45574 14.1667 4.16668C14.1667 1.8693 12.2974 0 10 0C4.48609 0 0 4.48609 0 10C0 15.5139 4.48609 20 10 20C15.5139 20 20 15.5139 20 10C20 8.85133 19.0654 7.91668 17.9167 7.91668ZM10 2.5C10.9192 2.5 11.6667 3.24746 11.6667 4.16668C11.6667 5.0859 10.9192 5.83332 10 5.83332C9.08082 5.83332 8.33332 5.08586 8.33332 4.16664C8.33332 3.24742 9.08082 2.5 10 2.5ZM2.5 10C2.5 9.08082 3.24746 8.33332 4.16668 8.33332C5.0859 8.33332 5.83336 9.08078 5.83336 10C5.83336 10.9192 5.0859 11.6667 4.16668 11.6667C3.24746 11.6667 2.5 10.9192 2.5 10ZM5.83332 15.8333C4.91414 15.8333 4.16664 15.0859 4.16664 14.1666C4.16664 13.2474 4.91414 12.5 5.83332 12.5C6.7525 12.5 7.5 13.2475 7.5 14.1667C7.5 15.0859 6.75254 15.8333 5.83332 15.8333ZM5.83332 7.5C4.91414 7.5 4.16664 6.75254 4.16664 5.83332C4.16664 4.9141 4.9141 4.16664 5.83332 4.16664C6.75254 4.16664 7.5 4.91414 7.5 5.83332C7.5 6.7525 6.75254 7.5 5.83332 7.5ZM10 17.5C9.08082 17.5 8.33332 16.7525 8.33332 15.8333C8.33332 14.9141 9.08078 14.1666 10 14.1666C10.9192 14.1666 11.6667 14.9141 11.6667 15.8333C11.6667 16.7525 10.9192 17.5 10 17.5Z" fill="white"/>
</svg>
