<svg width="20" height="20" viewBox="0 0 20 20" fill="none" xmlns="http://www.w3.org/2000/svg">
<path d="M14.8243 6.44975C14.6538 6.27917 14.352 6.27917 14.1816 6.44975L5.53589 15.1027C5.43246 15.2062 5.38542 15.3529 5.40847 15.4973C5.432 15.6416 5.52344 15.766 5.65393 15.8313L6.3637 16.1867V17.382L4.18909 18.0043L1.99407 15.8074L2.6158 13.6309H3.81004L4.16514 14.3412C4.23038 14.4718 4.35469 14.5634 4.49893 14.5869C4.52335 14.5909 4.54777 14.5927 4.57172 14.5927C4.69112 14.5927 4.80741 14.5456 4.89311 14.4594L13.5388 5.80642C13.624 5.7211 13.6719 5.60562 13.6719 5.48477C13.6719 5.36392 13.624 5.24843 13.5388 5.16312L11.8671 3.48998C11.7819 3.40467 11.6665 3.35669 11.5457 3.35669H11.5448C11.4236 3.35712 11.3078 3.40557 11.223 3.49131L1.95014 12.8556C1.94566 12.8602 1.94588 12.8671 1.94157 12.8718C1.89491 12.9222 1.85596 12.9804 1.83559 13.0511L1.04635 15.8149L0.0174462 19.4202C-0.0278519 19.5788 0.0165513 19.7498 0.133312 19.8667C0.21986 19.9533 0.335726 20 0.454703 20C0.496421 20 0.53814 19.9942 0.579432 19.9826L4.18159 18.9528L6.94303 18.1629C6.95134 18.1605 6.95705 18.1543 6.96519 18.1514C6.99386 18.1415 7.01896 18.1254 7.04534 18.1098C7.07125 18.0944 7.09716 18.0807 7.11906 18.061C7.12494 18.0558 7.13266 18.0539 7.13832 18.0483L16.4947 8.76751C16.5803 8.68266 16.6287 8.56671 16.6291 8.44543C16.6296 8.32458 16.5816 8.20863 16.496 8.12289L14.8243 6.44975Z" fill="white"/>
<path d="M19.4674 3.24571L16.7401 0.516136C16.053 -0.171605 14.8576 -0.172926 14.1678 0.517457L12.5027 2.19903C12.3265 2.3772 12.3269 2.66373 12.504 2.841L17.1445 7.48537C17.2332 7.57422 17.3496 7.61867 17.4659 7.61867C17.5817 7.61867 17.6971 7.57469 17.7859 7.48674L19.4673 5.81897C19.8109 5.47512 20 5.01839 20 4.53238C20 4.04637 19.811 3.58956 19.4674 3.24571Z" fill="white"/>
</svg>
