<svg width="20" height="20" viewBox="0 0 20 20" fill="none" xmlns="http://www.w3.org/2000/svg">
<path d="M0.200073 19.1567L19.2244 0.13288C19.3541 0.00282348 19.5503 -0.0353583 19.7198 0.0343149C19.8894 0.1045 20.0003 0.27048 20.0003 0.454272V19.5452C20.0003 19.7964 19.797 19.9997 19.5458 19.9997H17.7276C17.4763 19.9997 17.273 19.7964 17.273 19.5452V18.1815C17.273 17.9308 17.0688 17.727 16.8185 17.727C16.5681 17.727 16.3639 17.9307 16.3639 18.1815V19.5452C16.3639 19.7964 16.1606 19.9997 15.9093 19.9997H15.0003C14.749 19.9997 14.5457 19.7964 14.5457 19.5452V18.6361C14.5457 18.3853 14.3415 18.1815 14.0911 18.1815C13.8408 18.1815 13.6366 18.3853 13.6366 18.6361V19.5452C13.6366 19.7964 13.4333 19.9997 13.182 19.9997H12.273C12.0217 19.9997 11.8184 19.7964 11.8184 19.5452V18.1815C11.8184 17.9308 11.6142 17.727 11.3638 17.727C11.1135 17.727 10.9093 17.9307 10.9093 18.1815V19.5452C10.9093 19.7964 10.706 19.9997 10.4547 19.9997H9.54563C9.29438 19.9997 9.09107 19.7964 9.09107 19.5452V18.6361C9.09107 18.3853 8.88687 18.1815 8.63651 18.1815C8.38616 18.1815 8.18195 18.3853 8.18195 18.6361V19.5452C8.18195 19.7964 7.97864 19.9997 7.72739 19.9997H6.81832C6.56707 19.9997 6.36376 19.7964 6.36376 19.5452V18.1815C6.36376 17.9308 6.15955 17.727 5.9092 17.727C5.65884 17.727 5.45464 17.9307 5.45464 18.1815V19.5452C5.45464 19.7964 5.25133 19.9997 5.00008 19.9997H4.091C3.83975 19.9997 3.63644 19.7964 3.63644 19.5452V18.6361C3.63644 18.3853 3.43224 18.1815 3.18188 18.1815C2.93152 18.1815 2.72732 18.3853 2.72732 18.6361V19.5452C2.72732 19.7964 2.52401 19.9997 2.27276 19.9997H0.454561C0.447445 19.9997 0.440372 20.0002 0.436792 19.9997C0.185543 19.9997 1.90735e-06 19.7964 1.90735e-06 19.5452C0.000343323 19.3805 0.0695915 19.2367 0.200073 19.1567ZM9.21644 16.3633C9.22088 16.3638 9.22799 16.3642 9.23421 16.3633H15.9094C16.1607 16.3633 16.364 16.16 16.364 15.9088V9.2331C16.364 9.04931 16.253 8.88333 16.0835 8.81319C15.9139 8.74305 15.7186 8.78212 15.5881 8.91175L8.97943 15.5204C8.8489 15.6003 8.76193 15.7441 8.76193 15.9088C8.76188 16.16 8.96519 16.3633 9.21644 16.3633Z" fill="white"/>
</svg>
