<svg width="20" height="20" viewBox="0 0 20 20" fill="none" xmlns="http://www.w3.org/2000/svg">
<g clip-path="url(#clip0)">
<path fill-rule="evenodd" clip-rule="evenodd" d="M10.7071 2.70717C10.3166 2.31664 9.68342 2.31664 9.29289 2.70717C9.2924 2.70766 9.29191 2.70816 9.29141 2.70865L5.05022 6.94984C4.6597 7.34036 4.6597 7.97353 5.05022 8.36405C5.44075 8.75458 6.07391 8.75458 6.46444 8.36405L9 5.82849L9.00001 13C9.00001 13.5523 9.44772 14 10 14C10.5523 14 11 13.5523 11 13L11 5.82849L13.5355 8.36402C13.9261 8.75454 14.5592 8.75454 14.9498 8.36402C15.3403 7.9735 15.3403 7.34033 14.9498 6.94981L10.7071 2.70717ZM17 17V15C17 14.4478 16.5523 14 16 14C15.4477 14 15 14.4478 15 15V16L5.00001 16L5.00001 15C5.00001 14.4478 4.5523 14 4.00001 14C3.44773 14 3.00001 14.4478 3.00001 15L3.00001 17C3.00001 17.5523 3.44773 18 4.00001 18L16 18C16.5523 18 17 17.5523 17 17Z" fill="white"/>
</g>
<defs>
<clipPath id="clip0">
<rect width="20" height="20" fill="white"/>
</clipPath>
</defs>
</svg>
