<svg width="20" height="20" viewBox="0 0 20 20" fill="none" xmlns="http://www.w3.org/2000/svg">
<path fill-rule="evenodd" clip-rule="evenodd" d="M12.25 8.25C12.25 10.4591 10.4591 12.25 8.25 12.25C6.04086 12.25 4.25 10.4591 4.25 8.25C4.25 6.04086 6.04086 4.25 8.25 4.25C10.4591 4.25 12.25 6.04086 12.25 8.25ZM11.7241 13.1425C10.7437 13.8399 9.54474 14.25 8.25 14.25C4.93629 14.25 2.25 11.5637 2.25 8.25C2.25 4.93629 4.93629 2.25 8.25 2.25C11.5637 2.25 14.25 4.93629 14.25 8.25C14.25 9.54692 13.8385 10.7477 13.139 11.729L17.4632 16.0532C17.8537 16.4438 17.8537 17.0769 17.4632 17.4675C17.0727 17.858 16.4395 17.858 16.049 17.4675L11.7241 13.1425Z" fill="white"/>
</svg>
