<svg width="20" height="20" viewBox="0 0 20 20" fill="none" xmlns="http://www.w3.org/2000/svg">
<path d="M19.5454 0H16.8182C16.5669 0 16.3636 0.203309 16.3636 0.454559V0.909118H15.9091C15.4066 0.909118 15 1.31616 15 1.81819C15 2.32022 15.4066 2.72727 15.9091 2.72727H16.3636V3.18183C16.3636 3.43308 16.5669 3.63639 16.8182 3.63639H17.2727V4.0909C17.2727 4.59293 17.6793 4.99998 18.1818 4.99998C18.6843 4.99998 19.0909 4.59293 19.0909 4.0909V3.63634H19.5454C19.7967 3.63634 20 3.43303 20 3.18179V0.454516C20 0.203309 19.7967 0 19.5454 0Z" fill="white"/>
<path d="M19.5454 16.3636H19.0909V15.9091C19.0909 15.407 18.6843 15 18.1818 15C17.6793 15 17.2727 15.407 17.2727 15.9091V16.3636H16.8182C16.5669 16.3636 16.3636 16.5669 16.3636 16.8182V17.2728H15.909C15.4065 17.2728 15 17.6798 15 18.1818C15 18.6839 15.4066 19.0909 15.909 19.0909H16.3636V19.5455C16.3636 19.7967 16.5669 20 16.8182 20H19.5454C19.7967 20 20 19.7967 20 19.5455V16.8182C20 16.5669 19.7967 16.3636 19.5454 16.3636Z" fill="white"/>
<path d="M4.0909 0.909075H3.63634V0.454559C3.63634 0.203309 3.43303 0 3.18183 0H0.454559C0.203309 0 0 0.203309 0 0.454559V3.18183C0 3.43308 0.203309 3.63639 0.454559 3.63639H0.909118V4.0909C0.909118 4.59293 1.31574 4.99998 1.81819 4.99998C2.32065 4.99998 2.72727 4.59293 2.72727 4.0909V3.63634H3.18183C3.43308 3.63634 3.63639 3.43303 3.63639 3.18179V2.72727H4.0909C4.5934 2.72727 4.99998 2.32022 4.99998 1.81819C4.99998 1.31616 4.5934 0.909075 4.0909 0.909075Z" fill="white"/>
<path d="M8.63636 0.909058H6.81817C6.31567 0.909058 5.90909 1.3161 5.90909 1.81813C5.90909 2.32016 6.31567 2.72725 6.81817 2.72725H8.63636C9.13882 2.72725 9.54544 2.32021 9.54544 1.81818C9.54544 1.31615 9.13882 0.909058 8.63636 0.909058Z" fill="white"/>
<path d="M13.1818 0.909058H11.3636C10.8611 0.909058 10.4545 1.3161 10.4545 1.81813C10.4545 2.32016 10.8611 2.72725 11.3636 2.72725H13.1818C13.6843 2.72725 14.0909 2.32021 14.0909 1.81818C14.0909 1.31615 13.6843 0.909058 13.1818 0.909058Z" fill="white"/>
<path d="M4.0909 17.2727H3.63634V16.8182C3.63634 16.5669 3.43303 16.3636 3.18179 16.3636H2.72727V15.909C2.72727 15.407 2.32065 15 1.81819 15C1.31574 15 0.909118 15.407 0.909118 15.9091V16.3636H0.454559C0.203309 16.3636 0 16.5669 0 16.8182V19.5455C0 19.7967 0.203309 20 0.454559 20H3.18183C3.43308 20 3.63639 19.7967 3.63639 19.5455V19.0909H4.0909C4.5934 19.0909 4.99998 18.6839 4.99998 18.1818C4.99998 17.6798 4.5934 17.2727 4.0909 17.2727Z" fill="white"/>
<path d="M8.63636 17.2727H6.81817C6.31567 17.2727 5.90909 17.6797 5.90909 18.1818C5.90909 18.6838 6.31567 19.0909 6.81817 19.0909H8.63636C9.13886 19.0909 9.54544 18.6839 9.54544 18.1818C9.54544 17.6798 9.13882 17.2727 8.63636 17.2727Z" fill="white"/>
<path d="M13.1818 17.2727H11.3636C10.8611 17.2727 10.4545 17.6797 10.4545 18.1818C10.4545 18.6838 10.8611 19.0909 11.3636 19.0909H13.1818C13.6843 19.0909 14.0909 18.6839 14.0909 18.1818C14.0909 17.6798 13.6843 17.2727 13.1818 17.2727Z" fill="white"/>
<path d="M0.909067 13.1817C0.909067 13.6838 1.31569 14.0908 1.81814 14.0908C2.3206 14.0908 2.72726 13.6838 2.72726 13.1817V11.3635C2.72726 10.8615 2.32064 10.4545 1.81819 10.4545C1.31573 10.4545 0.90911 10.8615 0.90911 11.3635V13.1817H0.909067Z" fill="white"/>
<path d="M1.81819 9.5454C2.32064 9.5454 2.72726 9.13836 2.72726 8.63633V6.81813C2.72726 6.3161 2.32064 5.90906 1.81819 5.90906C1.31573 5.90906 0.909067 6.3161 0.909067 6.81813V8.63633C0.909067 9.13836 1.31569 9.5454 1.81819 9.5454Z" fill="white"/>
<path d="M17.2727 13.1817C17.2727 13.6838 17.6793 14.0908 18.1818 14.0908C18.6843 14.0908 19.0908 13.6838 19.0908 13.1817V11.3635C19.0908 10.8615 18.6842 10.4545 18.1818 10.4545C17.6793 10.4545 17.2727 10.8615 17.2727 11.3635V13.1817Z" fill="white"/>
<path d="M18.1818 9.5454C18.6843 9.5454 19.0909 9.13836 19.0909 8.63633V6.81813C19.0909 6.3161 18.6843 5.90906 18.1818 5.90906C17.6793 5.90906 17.2727 6.3161 17.2727 6.81813V8.63633C17.2727 9.13836 17.6793 9.5454 18.1818 9.5454Z" fill="white"/>
</svg>
