<svg width="20" height="20" viewBox="0 0 20 20" fill="none" xmlns="http://www.w3.org/2000/svg">
<path d="M17.0626 2.93769C16.458 2.333 15.654 2 14.799 2C13.9439 2 13.1399 2.333 12.5353 2.93766L3.58855 11.8844C3.51242 11.9605 3.45727 12.055 3.42839 12.1587L2.02314 17.2074C1.96255 17.4252 2.0242 17.6587 2.18449 17.8181C2.30324 17.9362 2.46236 18 2.6253 18C2.68224 18 2.73967 17.9922 2.79602 17.9762L7.84467 16.5421C8.05767 16.4816 8.2228 16.3129 8.27867 16.0986C8.33455 15.8843 8.27286 15.6565 8.11652 15.4996L4.93364 12.3071L12.3497 4.89097L15.1078 7.64903L9.43049 13.3109C9.18608 13.5546 9.18555 13.9503 9.4293 14.1947C9.67302 14.4392 10.0688 14.4397 10.3132 14.196L17.0625 7.46497C17.6672 6.86031 18.0002 6.05641 18.0002 5.20131C18.0002 4.34622 17.6672 3.54231 17.0626 2.93769ZM6.48133 15.6299L3.52608 16.4694L4.35374 13.4959L6.48133 15.6299ZM16.1793 6.58047L15.9929 6.76638L13.2336 4.00709L13.4192 3.82153C13.7877 3.45297 14.2777 3.25 14.799 3.25C15.3202 3.25 15.8101 3.45297 16.1787 3.82156C16.5473 4.19009 16.7502 4.68009 16.7502 5.20131C16.7502 5.72253 16.5473 6.21253 16.1793 6.58047Z" fill="white"/>
</svg>
