<svg width="20" height="20" viewBox="0 0 20 20" fill="none" xmlns="http://www.w3.org/2000/svg">
<path d="M18.7945 17.7996L15.0892 14.0942C15.0836 14.0883 15.0778 14.0826 15.072 14.077L5.93193 4.93691C5.92574 4.93047 5.91948 4.92421 5.91308 4.91806L2.20134 1.20632C1.92674 0.931715 1.48159 0.931715 1.20701 1.20632C0.932443 1.48093 0.932408 1.92608 1.20701 2.20065L4.34957 5.34321C2.74774 6.60437 1.75468 8.01267 1.46334 8.4556C0.846204 9.39386 0.846204 10.6064 1.46334 11.5447C1.83993 12.1172 2.90176 13.587 4.62397 14.8671C6.36769 16.1631 8.1819 16.8203 10.0162 16.8203C11.5281 16.8203 13.03 16.3704 14.4883 15.4819L17.8003 18.7939C17.9376 18.9312 18.1175 18.9999 18.2974 18.9999C18.4773 18.9999 18.6573 18.9312 18.7946 18.7939C19.0691 18.5193 19.0691 18.0741 18.7945 17.7996ZM7.73208 8.72567L8.69954 9.69314C8.59787 10.1378 8.72018 10.6232 9.06651 10.9696C9.41283 11.3159 9.89827 11.4382 10.3429 11.3365L11.2756 12.2692C10.8907 12.4862 10.4547 12.6016 10.0008 12.6016C8.56634 12.6016 7.39935 11.4346 7.39935 10.0001C7.39932 9.54798 7.51505 9.11116 7.73208 8.72567ZM10.0162 15.414C6.60236 15.414 3.77224 12.496 2.63813 10.7718C2.32973 10.303 2.32973 9.69715 2.63813 9.22834C2.90605 8.82102 3.84009 7.49749 5.3516 6.34527L6.71328 7.70695C6.24559 8.37555 5.9931 9.17118 5.9931 10.0001C5.9931 12.21 7.79093 14.0078 10.0008 14.0078C10.833 14.0078 11.6266 13.7558 12.2943 13.2879L13.4603 14.454C12.3208 15.0915 11.1654 15.414 10.0162 15.414Z" fill="white"/>
<path d="M18.5556 8.4828C18.552 8.47693 18.5483 8.47106 18.5446 8.46522C18.1712 7.892 17.1179 6.42031 15.4033 5.1383C13.6653 3.83875 11.8526 3.17981 10.0158 3.17981C9.31664 3.17981 8.60792 3.27863 7.9094 3.47347C7.53534 3.57785 7.31674 3.96566 7.42104 4.33965C7.52539 4.71368 7.91306 4.93225 8.28722 4.82801C8.86273 4.66745 9.44432 4.58606 10.0158 4.58606C13.4151 4.58606 16.2185 7.48214 17.3519 9.21064C17.3555 9.21651 17.3592 9.22238 17.363 9.22818C17.5141 9.45783 17.5939 9.72466 17.5939 9.99994C17.5939 10.2752 17.5141 10.542 17.363 10.7717C17.0248 11.2859 16.5716 11.8499 16.0868 12.3598C15.8193 12.6413 15.8305 13.0863 16.112 13.3539C16.2481 13.4832 16.4223 13.5474 16.5963 13.5474C16.7822 13.5474 16.9678 13.4741 17.106 13.3286C17.7989 12.5998 18.2671 11.956 18.5379 11.5444C18.8403 11.0846 19.0001 10.5506 19.0001 9.99987C19.0001 9.46015 18.8465 8.93632 18.5556 8.4828Z" fill="white"/>
<path d="M13.9147 9.13732C13.5843 7.63227 12.4001 6.43745 10.8979 6.09341C10.5194 6.00689 10.1423 6.24331 10.0556 6.62181C9.96895 7.00034 10.2055 7.37742 10.584 7.46412C11.5586 7.68729 12.3268 8.46242 12.5412 9.43889C12.6133 9.76739 12.9043 9.99134 13.2273 9.99134C13.2772 9.99134 13.3279 9.98599 13.3787 9.97481C13.758 9.89156 13.998 9.51658 13.9147 9.13732Z" fill="white"/>
</svg>
