<svg width="20" height="20" viewBox="0 0 20 20" fill="none" xmlns="http://www.w3.org/2000/svg">
<path d="M17.375 13.75C17.0298 13.75 16.75 14.0298 16.75 14.375C16.75 15.0643 16.1892 15.625 15.5 15.625H10.7292L9.29219 13.7608L13.828 7.99144L16.8926 11.6474C16.8987 11.6548 16.9049 11.662 16.9113 11.6691C16.9116 11.6693 16.9118 11.6696 16.912 11.6698C16.9127 11.6707 16.9135 11.6715 16.9143 11.6724C16.9712 11.7345 17.0381 11.7827 17.1104 11.8164C17.1847 11.8512 17.2671 11.8717 17.3538 11.8746C17.3554 11.8747 17.357 11.8747 17.3586 11.8748C17.3589 11.8748 17.3592 11.8748 17.3594 11.8748C17.4041 11.8759 17.4489 11.8723 17.493 11.8638L17.4947 11.8635C17.4966 11.8632 17.4986 11.8628 17.5005 11.8624C17.5013 11.8622 17.5021 11.862 17.5029 11.8619C17.5046 11.8615 17.5063 11.8612 17.508 11.8608C17.5089 11.8606 17.5099 11.8604 17.5108 11.8602C17.5123 11.8598 17.5139 11.8595 17.5154 11.8592C17.5165 11.8589 17.5176 11.8587 17.5187 11.8584C17.52 11.8581 17.5214 11.8577 17.5228 11.8574C17.524 11.8571 17.5251 11.8568 17.5263 11.8565C17.5276 11.8562 17.5289 11.8559 17.5302 11.8556C17.5314 11.8553 17.5325 11.8549 17.5337 11.8546C17.535 11.8543 17.5363 11.8539 17.5376 11.8536C17.5388 11.8533 17.54 11.8529 17.5412 11.8526L17.5448 11.8516C17.5461 11.8513 17.5474 11.8509 17.5487 11.8505C17.5499 11.8502 17.5512 11.8498 17.5524 11.8495C17.5534 11.8492 17.5544 11.8489 17.5554 11.8486C17.5569 11.8481 17.5585 11.8476 17.56 11.8472C17.5608 11.8469 17.5617 11.8466 17.5625 11.8464C17.5641 11.8459 17.5656 11.8454 17.5672 11.8449C17.5681 11.8446 17.569 11.8443 17.57 11.844C17.5715 11.8435 17.5731 11.8429 17.5746 11.8424C17.5753 11.8422 17.576 11.8419 17.5767 11.8417C17.5785 11.8411 17.5802 11.8405 17.5819 11.8399C17.5826 11.8397 17.5833 11.8395 17.5839 11.8393C17.5857 11.8386 17.5874 11.838 17.5892 11.8373C17.5898 11.8371 17.5903 11.8369 17.5909 11.8367C17.5928 11.836 17.5947 11.8353 17.5966 11.8346L17.5976 11.8342C17.5997 11.8334 17.6018 11.8326 17.604 11.8317C17.6041 11.8317 17.6042 11.8316 17.6043 11.8316C17.6066 11.8307 17.6089 11.8298 17.6112 11.8288C17.639 11.8175 17.6662 11.804 17.6925 11.7884C17.6929 11.7882 17.6933 11.788 17.6937 11.7878C17.6954 11.7867 17.6972 11.7856 17.699 11.7846C17.7327 11.7641 17.7643 11.7405 17.7934 11.7143C17.7939 11.7138 17.7944 11.7133 17.795 11.7128C17.7954 11.7124 17.7959 11.712 17.7964 11.7116C17.859 11.6544 17.9076 11.5872 17.9415 11.5143C17.9763 11.4398 17.9969 11.3572 17.9996 11.27C17.9997 11.2689 17.9997 11.2678 17.9997 11.2667C17.9997 11.266 17.9998 11.2653 17.9998 11.2646C17.9998 11.2624 17.9998 11.2603 17.9999 11.2582C17.9999 11.2581 17.9999 11.2581 17.9999 11.258C17.9999 11.2547 17.9999 11.2514 17.9999 11.2481V5.625C17.9999 4.2465 16.8784 3.125 15.4999 3.125H4.5C3.1215 3.125 2 4.24647 2 5.625V14.375C2 15.7535 3.1215 16.875 4.5 16.875H10.4179C10.4194 16.875 10.4209 16.875 10.4223 16.875C10.4243 16.875 10.4263 16.875 10.4282 16.875H15.5C16.8785 16.875 18 15.7535 18 14.375C18 14.0298 17.7202 13.75 17.375 13.75ZM4.5 15.625C3.81075 15.625 3.25 15.0643 3.25 14.375V5.625C3.25 4.93575 3.81075 4.375 4.5 4.375H15.5C16.1892 4.375 16.75 4.93575 16.75 5.625V9.53147L14.2915 6.5985C14.1705 6.45419 13.9914 6.37222 13.8027 6.37506C13.6145 6.378 13.4375 6.46569 13.3212 6.61369L8.505 12.7395L6.87 10.6184C6.75169 10.4649 6.56881 10.375 6.375 10.375H6.37469C6.18075 10.3751 5.99784 10.4652 5.87959 10.6189L4.50413 12.407C4.29369 12.6806 4.34484 13.073 4.61844 13.2835C4.89209 13.4939 5.28447 13.4428 5.49491 13.1692L6.3755 12.0244L9.151 15.625H4.5Z" fill="white"/>
<path d="M6.375 5.375C5.34113 5.375 4.5 6.21613 4.5 7.25C4.5 8.28387 5.34113 9.125 6.375 9.125C7.40887 9.125 8.25 8.28387 8.25 7.25C8.25 6.21613 7.40887 5.375 6.375 5.375ZM6.375 7.875C6.03038 7.875 5.75 7.59462 5.75 7.25C5.75 6.90538 6.03038 6.625 6.375 6.625C6.71962 6.625 7 6.90538 7 7.25C7 7.59462 6.71962 7.875 6.375 7.875Z" fill="white"/>
</svg>
