<svg width="20" height="20" viewBox="0 0 20 20" fill="none" xmlns="http://www.w3.org/2000/svg">
<path d="M13.4658 5.37549H9.0311C8.68585 5.37549 8.40601 5.65533 8.40601 6.00058C8.40601 6.34583 8.68585 6.62567 9.0311 6.62567H13.4658C13.811 6.62567 14.0909 6.34583 14.0909 6.00058C14.0909 5.65533 13.811 5.37549 13.4658 5.37549Z" fill="white"/>
<path d="M13.4658 7.87585H9.0311C8.68585 7.87585 8.40601 8.1557 8.40601 8.50095C8.40601 8.8462 8.68585 9.12604 9.0311 9.12604H13.4658C13.811 9.12604 14.0909 8.8462 14.0909 8.50095C14.0909 8.1557 13.811 7.87585 13.4658 7.87585Z" fill="white"/>
<path d="M10.9376 10.3762H9.0311C8.68585 10.3762 8.40601 10.6561 8.40601 11.0013C8.40601 11.3466 8.68585 11.6264 9.0311 11.6264H10.9376C11.2829 11.6264 11.5627 11.3466 11.5627 11.0013C11.5627 10.6561 11.2829 10.3762 10.9376 10.3762Z" fill="white"/>
<path d="M16.0009 10.5012C16.3461 10.5012 16.626 10.2214 16.626 9.87612V4.50038C16.626 3.12166 15.5043 2 14.1256 2H8.37477C6.99684 2 5.87568 3.12041 5.8744 4.49806C4.49571 4.49806 3.37402 5.61972 3.37402 6.99844V15.4997C3.37402 16.8783 4.49568 18 5.8744 18H11.9378C13.3165 18 14.4381 16.8784 14.4381 15.4997V15.4807C15.6698 15.3263 16.626 14.2725 16.626 12.9998C16.626 12.6545 16.3461 12.3747 16.0009 12.3747C15.6556 12.3747 15.3758 12.6545 15.3758 12.9998C15.3758 13.6889 14.8151 14.2498 14.1259 14.2499L8.37505 14.2513H8.37477C8.04087 14.2513 7.72696 14.1213 7.49087 13.8853C7.25468 13.6491 7.12459 13.3351 7.12459 13.0012V4.50038C7.12459 3.81103 7.68543 3.25019 8.37477 3.25019H14.1256C14.815 3.25019 15.3758 3.81103 15.3758 4.50038V9.87616C15.3758 10.2214 15.6556 10.5012 16.0009 10.5012ZM8.37477 15.5015H8.3754L13.188 15.5003C13.1876 16.1893 12.6269 16.7498 11.9378 16.7498H5.87443C5.18509 16.7498 4.62424 16.1889 4.62424 15.4996V6.99837C4.62424 6.30903 5.18509 5.74819 5.87443 5.74819V13.0011C5.87443 13.6691 6.13459 14.2971 6.60696 14.7693C7.07924 15.2415 7.70696 15.5015 8.37477 15.5015Z" fill="white"/>
</svg>
