<svg width="20" height="20" viewBox="0 0 20 20" fill="none" xmlns="http://www.w3.org/2000/svg">
<path d="M10.0356 11.3712C10.7928 11.3712 11.4067 10.7573 11.4067 10.0001C11.4067 9.24287 10.7928 8.62903 10.0356 8.62903C9.2784 8.62903 8.66455 9.24287 8.66455 10.0001C8.66455 10.7573 9.2784 11.3712 10.0356 11.3712Z" fill="white"/>
<path d="M10.0356 5.99231C7.82569 5.99231 6.02783 7.79017 6.02783 10C6.02783 12.2099 7.82569 14.0078 10.0356 14.0078C12.2454 14.0078 14.0433 12.2099 14.0433 10C14.0433 7.79017 12.2454 5.99231 10.0356 5.99231ZM10.0356 12.6015C8.60107 12.6015 7.43405 11.4345 7.43405 10C7.43405 8.56555 8.60107 7.39853 10.0356 7.39853C11.47 7.39853 12.6371 8.56555 12.6371 10C12.6371 11.4345 11.47 12.6015 10.0356 12.6015Z" fill="white"/>
<path d="M18.5444 8.46517C18.1711 7.89191 17.1177 6.42023 15.4031 5.13821C13.6651 3.83866 11.8524 3.17969 10.0155 3.17969C8.18126 3.17969 6.36705 3.83687 4.6233 5.13291C2.90106 6.41295 1.83923 7.8828 1.46263 8.45533C0.845463 9.39361 0.845463 10.6061 1.46263 11.5444C1.83923 12.117 2.90106 13.5868 4.6233 14.8669C6.36705 16.1629 8.18123 16.8201 10.0155 16.8201C12.8395 16.8201 15.1103 15.2455 16.518 13.9246C16.8012 13.6589 16.8153 13.214 16.5496 12.9308C16.2839 12.6476 15.839 12.6335 15.5558 12.8992C14.3331 14.0464 12.3795 15.4139 10.0155 15.4139C6.60165 15.4139 3.77149 12.4959 2.63738 10.7717C2.32899 10.3028 2.32899 9.69701 2.63738 9.22817C3.77149 7.50396 6.60165 4.58598 10.0155 4.58598C13.4292 4.58598 16.2421 7.50677 17.366 9.2326C17.6696 9.69874 17.6696 10.3011 17.366 10.7672C17.1541 11.0927 17.2461 11.5282 17.5715 11.7401C17.8969 11.952 18.3325 11.86 18.5444 11.5346C19.1515 10.6023 19.1515 9.39745 18.5444 8.46517Z" fill="white"/>
</svg>
