<svg width="24" height="24" viewBox="0 0 24 24" fill="none" xmlns="http://www.w3.org/2000/svg">
<g clip-path="url(#clip0)">
<path d="M24 4.46851V0.703125C24 0.314941 23.6851 0 23.2969 0H19.5315C19.3449 0 19.1658 0.0739746 19.034 0.205811L12 7.23981L4.966 0.205811C4.83417 0.0739746 4.65509 0 4.46851 0H0.703125C0.314941 0 0 0.314941 0 0.703125V4.46851C0 4.65509 0.0739746 4.83417 0.205811 4.966L7.23981 12L5.9751 13.2645C5.88647 13.1765 5.80078 13.0906 5.71875 13.0085C4.82153 12.1133 3.36237 12.1133 2.4657 13.0085C1.56427 13.9087 1.56519 15.364 2.4657 16.2631C2.76379 16.5608 3.10693 16.9034 3.47443 17.2714C3.47443 17.2714 0.604248 20.1398 0.605713 20.1389C0.605164 20.1392 0.604614 20.1398 0.604248 20.1398C0.2146 20.5307 0 21.0509 0 21.6046C0 22.9321 1.07483 23.9998 2.39392 23.9998C2.94836 23.9998 3.46875 23.7843 3.85968 23.3923L6.72803 20.5256C7.09589 20.894 7.43903 21.2366 7.73767 21.5347C8.63434 22.4304 10.0935 22.4301 10.9904 21.5352C11.8922 20.6347 11.8909 19.1788 10.9904 18.2802C10.9087 18.1987 10.823 18.1128 10.7349 18.0253L12 16.7602L13.2651 18.0253C13.177 18.113 13.0913 18.1987 13.0096 18.2803C12.1091 19.1788 12.1078 20.6349 13.0096 21.5354C13.9065 22.4302 15.3657 22.4306 16.2623 21.5349C16.561 21.2368 16.9041 20.894 17.272 20.5256L20.1403 23.3925C20.5312 23.7843 21.0516 24 21.6061 24C22.9252 24 24 22.9321 24 21.6046C24 21.0511 23.7854 20.5307 23.3958 20.1398C23.3954 20.1398 23.3948 20.1394 23.3943 20.1389C23.3958 20.1398 20.5256 17.2716 20.5256 17.2716C20.8931 16.9036 21.2362 16.561 21.5343 16.2632C22.4348 15.3642 22.4357 13.9087 21.5343 13.0087C20.6376 12.1135 19.1785 12.1135 18.2812 13.0087C18.1992 13.0908 18.1135 13.1766 18.0249 13.2647L16.7602 12L23.7942 4.966C23.926 4.83417 24 4.65509 24 4.46851ZM1.40625 4.17755V1.40625H4.17755L11.0057 8.23462L8.23462 11.0057L1.40625 4.17755ZM2.86505 22.3982C2.54242 22.7212 2.00537 22.6133 1.6983 22.3048C1.38428 21.9941 1.28009 21.4541 1.59979 21.1329L4.46851 18.2661L5.73376 19.5313L2.86505 22.3982ZM9.99701 20.5395C9.64783 20.8883 9.0802 20.8883 8.73102 20.5395L3.45941 15.2681C3.10913 14.9183 3.10913 14.3529 3.45941 14.0037C3.80859 13.6551 4.37622 13.6555 4.72504 14.0037L9.99701 19.2753C10.3477 19.626 10.3467 20.1909 9.99701 20.5395ZM22.4002 21.1331C22.7199 21.4543 22.6157 21.9943 22.3017 22.305C21.9946 22.6135 21.4576 22.7212 21.1349 22.3982L18.2662 19.5315L19.5315 18.2662L22.4002 21.1331ZM19.275 14.0039C19.6238 13.6556 20.1914 13.6551 20.5406 14.0039C20.8909 14.3531 20.8909 14.9185 20.5406 15.2681L15.269 20.5397C14.9198 20.8885 14.3522 20.8885 14.003 20.5397C13.6533 20.1909 13.6523 19.6262 14.003 19.2755L19.275 14.0039ZM17.0306 14.2593L14.2593 17.0306L12.9943 15.7654L15.7654 12.9943L17.0306 14.2593ZM22.5938 4.17755L9.74066 17.0305L6.96954 14.2593L19.8224 1.40625H22.5938V4.17755Z" fill="white"/>
</g>
<defs>
<clipPath id="clip0">
<rect width="24" height="24" fill="white"/>
</clipPath>
</defs>
</svg>
