<svg width="36" height="36" viewBox="0 0 36 36" fill="none" xmlns="http://www.w3.org/2000/svg">
<path d="M34.9453 31.7812H33.7092C33.3909 30.8838 32.6787 30.1716 31.7812 29.8533V15.8906C31.7812 15.4911 31.5555 15.126 31.1982 14.9472L28.8662 13.7812L31.1982 12.6153C31.5555 12.4365 31.7812 12.0714 31.7812 11.6719V6.14672C32.6787 5.82841 33.3909 5.11622 33.7092 4.21875H34.9453C35.5278 4.21875 36 3.74653 36 3.16406C36 2.58159 35.5278 2.10938 34.9453 2.10938H33.7092C33.2738 0.881859 32.1015 0 30.7266 0H5.27344C3.89848 0 2.72616 0.881859 2.29078 2.10938H1.05469C0.472219 2.10938 0 2.58159 0 3.16406C0 3.74653 0.472219 4.21875 1.05469 4.21875H2.29078C2.60909 5.11622 3.32128 5.82841 4.21875 6.14672V20.1094C4.21875 20.5089 4.44445 20.874 4.80178 21.0528L7.13384 22.2188L4.80178 23.3847C4.44445 23.5635 4.21875 23.9286 4.21875 24.3281V29.8533C3.32128 30.1716 2.60909 30.8838 2.29078 31.7812H1.05469C0.472219 31.7812 0 32.2535 0 32.8359C0 33.4184 0.472219 33.8906 1.05469 33.8906H2.29078C2.72616 35.1181 3.89848 36 5.27344 36H30.7266C32.1015 36 33.2738 35.1181 33.7092 33.8906H34.9453C35.5278 33.8906 36 33.4184 36 32.8359C36 32.2535 35.5278 31.7812 34.9453 31.7812ZM4.21875 3.16406C4.21875 2.58251 4.69188 2.10938 5.27344 2.10938H30.7266C31.3081 2.10938 31.7812 2.58251 31.7812 3.16406C31.7812 3.74562 31.3081 4.21875 30.7266 4.21875H5.27344C4.69188 4.21875 4.21875 3.74562 4.21875 3.16406ZM6.32812 24.98L9.96384 23.1621C10.3212 22.9834 10.5469 22.6183 10.5469 22.2188C10.5469 21.8192 10.3212 21.4541 9.96384 21.2754L6.32812 19.4575V6.32812H29.6719V11.02L26.0362 12.8379C25.6788 13.0166 25.4531 13.3817 25.4531 13.7812C25.4531 14.1808 25.6788 14.5459 26.0362 14.7246L29.6719 16.5425V29.6719H6.32812V24.98ZM30.7266 33.8906H5.27344C4.69188 33.8906 4.21875 33.4175 4.21875 32.8359C4.21875 32.2544 4.69188 31.7812 5.27344 31.7812H30.7266C31.3081 31.7812 31.7812 32.2544 31.7812 32.8359C31.7812 33.4175 31.3081 33.8906 30.7266 33.8906Z" fill="white"/>
<path d="M24.3984 8.4375H11.6016C11.0191 8.4375 10.5469 8.90972 10.5469 9.49219C10.5469 10.0747 11.0191 10.5469 11.6016 10.5469H24.3984C24.9809 10.5469 25.4531 10.0747 25.4531 9.49219C25.4531 8.90972 24.9809 8.4375 24.3984 8.4375Z" fill="white"/>
<path d="M20.1797 12.7266H13.7109C13.1285 12.7266 12.6562 13.1988 12.6562 13.7812C12.6562 14.3637 13.1285 14.8359 13.7109 14.8359H20.1797C20.7622 14.8359 21.2344 14.3637 21.2344 13.7812C21.2344 13.1988 20.7622 12.7266 20.1797 12.7266Z" fill="white"/>
<path d="M24.3984 16.9453H11.6016C11.0191 16.9453 10.5469 17.4175 10.5469 18C10.5469 18.5825 11.0191 19.0547 11.6016 19.0547H24.3984C24.9809 19.0547 25.4531 18.5825 25.4531 18C25.4531 17.4175 24.9809 16.9453 24.3984 16.9453Z" fill="white"/>
<path d="M20.1797 21.1641H13.7109C13.1285 21.1641 12.6562 21.6363 12.6562 22.2188C12.6562 22.8012 13.1285 23.2734 13.7109 23.2734H20.1797C20.7622 23.2734 21.2344 22.8012 21.2344 22.2188C21.2344 21.6363 20.7622 21.1641 20.1797 21.1641Z" fill="white"/>
<path d="M24.3984 25.3828H11.6016C11.0191 25.3828 10.5469 25.855 10.5469 26.4375C10.5469 27.02 11.0191 27.4922 11.6016 27.4922H24.3984C24.9809 27.4922 25.4531 27.02 25.4531 26.4375C25.4531 25.855 24.9809 25.3828 24.3984 25.3828Z" fill="white"/>
</svg>
