<svg width="36" height="36" viewBox="0 0 36 36" fill="none" xmlns="http://www.w3.org/2000/svg">
<g clip-path="url(#clip0)">
<path d="M27.5628 2.17974C26.1808 2.17974 24.9078 2.70448 23.8178 3.56321L18.944 6.51962C16.8305 7.80169 14.2551 8.50783 11.6924 8.50783H7.74135C7.74128 8.50783 7.74142 8.50783 7.74128 8.50783C3.7323 8.50783 0.218801 11.5251 0.0108882 15.4952C-0.196814 19.4629 2.69716 22.6861 6.32864 23.199V30.6561C6.32864 32.4008 7.74803 33.8202 9.49269 33.8202C11.2373 33.8202 12.6567 32.4008 12.6567 30.6561V27.4921H13.7114C15.4561 27.4921 16.8755 26.0727 16.8755 24.328V24.2456C17.5995 24.5273 18.2937 24.8671 18.944 25.2616L23.8177 28.218C24.9053 29.0749 26.1781 29.6015 27.5629 29.6015C29.9256 29.6015 32.103 28.0992 33.6943 25.3713C35.1813 22.8221 36.0003 19.4551 36.0003 15.8907C36.0003 8.4776 32.4182 2.17974 27.5628 2.17974ZM7.92972 21.164H7.38332C4.37706 21.164 1.95755 18.657 2.11737 15.6054C2.26137 12.8549 4.78431 10.6171 7.74135 10.6172H7.92972C6.89641 12.1641 6.32864 13.9964 6.32864 15.8906C6.32864 17.7848 6.89641 19.6171 7.92972 21.164ZM10.5473 30.6561C10.5473 31.2377 10.0742 31.7108 9.49262 31.7108C8.91106 31.7108 8.43793 31.2377 8.43793 30.6561V23.2734H10.5473C10.5473 24.2729 10.5473 29.5118 10.5473 30.6561ZM14.766 24.328C14.766 24.9096 14.2929 25.3827 13.7113 25.3827H12.6567V23.3065C13.3668 23.3551 14.0732 23.457 14.766 23.6091V24.328ZM20.6599 23.8354L20.038 23.4581C17.6783 22.0267 14.7597 21.164 11.602 21.164H10.6541C9.24118 19.7786 8.43793 17.8782 8.43793 15.8906C8.43793 13.903 9.24118 12.0026 10.6541 10.6172H11.6923C14.6354 10.6172 17.5993 9.80249 20.038 8.32312L20.6599 7.94583C19.6557 10.2657 19.1254 13.0023 19.1254 15.8906C19.1254 18.7789 19.6557 21.5155 20.6599 23.8354ZM21.2347 15.8906C21.2347 14.8036 21.3213 13.7406 21.4834 12.7266H24.3988C26.1434 12.7266 27.5628 14.1459 27.5628 15.8906C27.5628 17.6353 26.1434 19.0546 24.3988 19.0546H21.4834C21.3214 18.0406 21.2347 16.9776 21.2347 15.8906ZM27.5628 27.4921C27.1238 27.4921 26.6845 27.4032 26.2557 27.2298L25.0265 26.4842C23.6932 25.3865 22.6107 23.4836 21.9487 21.164H24.3988C27.3065 21.164 29.6722 18.7984 29.6722 15.8906C29.6722 12.9828 27.3065 10.6172 24.3988 10.6172H21.9487C22.6107 8.29753 23.6932 6.39467 25.0267 5.29696L26.2555 4.55151C26.6843 4.37798 27.1238 4.28911 27.5628 4.28911C30.993 4.28911 33.8909 9.60196 33.8909 15.8906C33.8909 22.1792 30.993 27.4921 27.5628 27.4921Z" fill="white"/>
</g>
<defs>
<clipPath id="clip0">
<rect width="36" height="36" fill="white"/>
</clipPath>
</defs>
</svg>
