<svg width="36" height="36" viewBox="0 0 36 36" fill="none" xmlns="http://www.w3.org/2000/svg">
<g clip-path="url(#clip0)">
<path d="M32.8369 0H3.16504C1.42044 0 0.000976562 1.4194 0.000976562 3.16406V24.3984C0.000976562 26.1431 1.42037 27.5624 3.16504 27.5624H15.8916L10.8291 34.3124C10.4796 34.7784 10.5741 35.4395 11.04 35.789C11.5059 36.1384 12.1671 36.0442 12.5166 35.5781L16.9463 29.6718V32.8359C16.9463 33.4183 17.4185 33.8906 18.001 33.8906C18.5834 33.8906 19.0556 33.4183 19.0556 32.8359V29.6718L23.4853 35.5781C23.8348 36.044 24.4958 36.1385 24.9619 35.789C25.4278 35.4395 25.5223 34.7784 25.1728 34.3124L20.1103 27.5624H32.8369C34.5815 27.5624 36.0009 26.1431 36.0009 24.3984V3.16406C36.0009 1.4194 34.5816 0 32.8369 0ZM33.8916 24.3984C33.8916 24.9799 33.4184 25.4531 32.8369 25.4531H3.16504C2.58348 25.4531 2.11035 24.9799 2.11035 24.3984V3.16406C2.11035 2.5825 2.58348 2.10937 3.16504 2.10937H32.8369C33.4184 2.10937 33.8916 2.5825 33.8916 3.16406V24.3984Z" fill="white"/>
<path d="M30.7266 4.21874H22.2188C20.4956 4.21874 18.963 5.04969 18.0001 6.33177C17.0372 5.04969 15.5046 4.21874 13.7814 4.21874H5.27356C4.69109 4.21874 4.21887 4.69096 4.21887 5.27343V22.289C4.21887 22.8715 4.69109 23.3437 5.27356 23.3437C6.39012 23.3437 29.6101 23.3437 30.7266 23.3437C31.3091 23.3437 31.7813 22.8715 31.7813 22.289V5.27343C31.7813 4.69096 31.3092 4.21874 30.7266 4.21874ZM16.9454 21.2343H6.32824V6.32811H13.7814C15.526 6.32811 16.9454 7.74751 16.9454 9.49217V21.2343ZM29.672 21.2343H19.0548V9.49217C19.0548 7.74751 20.4742 6.32811 22.2188 6.32811H29.672V21.2343Z" fill="white"/>
<path d="M26.5078 8.43748H22.2187C21.6363 8.43748 21.1641 8.9097 21.1641 9.49217C21.1641 10.0746 21.6363 10.5469 22.2187 10.5469H26.5078C27.0903 10.5469 27.5625 10.0746 27.5625 9.49217C27.5625 8.9097 27.0903 8.43748 26.5078 8.43748Z" fill="white"/>
<path d="M26.5078 12.7265H22.2187C21.6363 12.7265 21.1641 13.1988 21.1641 13.7812C21.1641 14.3637 21.6363 14.8359 22.2187 14.8359H26.5078C27.0903 14.8359 27.5625 14.3637 27.5625 13.7812C27.5625 13.1988 27.0903 12.7265 26.5078 12.7265Z" fill="white"/>
<path d="M26.5078 16.9453H22.2187C21.6363 16.9453 21.1641 17.4175 21.1641 18C21.1641 18.5824 21.6363 19.0547 22.2187 19.0547H26.5078C27.0903 19.0547 27.5625 18.5824 27.5625 18C27.5625 17.4175 27.0903 16.9453 26.5078 16.9453Z" fill="white"/>
<path d="M13.7814 8.43748H9.49231C8.90984 8.43748 8.43762 8.9097 8.43762 9.49217C8.43762 10.0746 8.90984 10.5469 9.49231 10.5469H13.7814C14.3638 10.5469 14.8361 10.0746 14.8361 9.49217C14.8361 8.9097 14.3639 8.43748 13.7814 8.43748Z" fill="white"/>
<path d="M13.7814 12.7265H9.49231C8.90984 12.7265 8.43762 13.1988 8.43762 13.7812C8.43762 14.3637 8.90984 14.8359 9.49231 14.8359H13.7814C14.3638 14.8359 14.8361 14.3637 14.8361 13.7812C14.8361 13.1988 14.3639 12.7265 13.7814 12.7265Z" fill="white"/>
<path d="M13.7814 16.9453H9.49231C8.90984 16.9453 8.43762 17.4175 8.43762 18C8.43762 18.5824 8.90984 19.0547 9.49231 19.0547H13.7814C14.3638 19.0547 14.8361 18.5824 14.8361 18C14.8361 17.4175 14.3639 16.9453 13.7814 16.9453Z" fill="white"/>
</g>
<defs>
<clipPath id="clip0">
<rect width="36" height="36" fill="white"/>
</clipPath>
</defs>
</svg>
