<svg width="36" height="36" viewBox="0 0 36 36" fill="none" xmlns="http://www.w3.org/2000/svg">
<path d="M35.5806 8.7914C35.317 8.59213 34.9752 8.5278 34.6571 8.6178L19.751 12.8365C19.2969 12.9651 18.9835 13.3795 18.9835 13.8513V28.1298C18.3624 27.7696 17.6423 27.5622 16.8741 27.5622C14.5479 27.5622 12.6554 29.4548 12.6554 31.781C12.6554 34.1072 14.5479 35.9997 16.8741 35.9997C19.2003 35.9997 21.0929 34.1072 21.0929 31.781C21.0929 31.6714 21.0929 18.8677 21.0929 18.8677L33.8897 15.2459V23.9111C33.2686 23.5508 32.5485 23.3435 31.7803 23.3435C29.4541 23.3435 27.5616 25.236 27.5616 27.5622C27.5616 29.8884 29.4541 31.781 31.7803 31.781C34.1065 31.781 35.999 29.8884 35.999 27.5622C35.999 27.4686 35.999 9.63261 35.999 9.63261C35.9991 9.30215 35.8442 8.99073 35.5806 8.7914ZM16.8742 33.8903C15.7111 33.8903 14.7648 32.9441 14.7648 31.781C14.7648 30.6179 15.7111 29.6716 16.8742 29.6716C18.0373 29.6716 18.9836 30.6179 18.9836 31.781C18.9836 32.9441 18.0373 33.8903 16.8742 33.8903ZM31.7804 29.6716C30.6173 29.6716 29.671 28.7253 29.671 27.5622C29.671 26.3991 30.6173 25.4529 31.7804 25.4529C32.9435 25.4529 33.8898 26.3991 33.8898 27.5622C33.8898 28.7253 32.9435 29.6716 31.7804 29.6716ZM33.8898 13.0538L21.0929 16.6755V14.649L33.8898 11.0273V13.0538Z" fill="white"/>
<path d="M14.7166 7.48688C12.3766 5.77155 10.6624 4.07266 9.47591 2.29299L8.26028 0.469727C8.00245 0.0830101 7.52186 -0.0893251 7.07714 0.0453228C6.63234 0.180041 6.3281 0.590031 6.3281 1.05479V17.5832C5.70703 17.223 4.9869 17.0157 4.21873 17.0157C1.89252 17.0157 0 18.9082 0 21.2344C0 23.5606 1.89252 25.4531 4.21873 25.4531C6.54494 25.4531 8.43747 23.5606 8.43747 21.2344V4.45741C9.69796 6.08155 11.3547 7.63791 13.4695 9.18823C14.281 9.78307 14.7656 10.7378 14.7656 11.7423C14.7656 13.487 13.3462 14.9064 11.6015 14.9064C11.0191 14.9064 10.5468 15.3786 10.5468 15.9611C10.5468 16.5435 11.0191 17.0157 11.6015 17.0157C14.5093 17.0157 16.8749 14.65 16.8749 11.7422C16.8749 10.0683 16.068 8.47751 14.7166 7.48688ZM4.21873 23.3438C3.05563 23.3438 2.10937 22.3975 2.10937 21.2344C2.10937 20.0713 3.05563 19.125 4.21873 19.125C5.38184 19.125 6.3281 20.0713 6.3281 21.2344C6.3281 22.3975 5.38184 23.3438 4.21873 23.3438Z" fill="white"/>
</svg>
