<svg width="36" height="36" viewBox="0 0 36 36" fill="none" xmlns="http://www.w3.org/2000/svg">
<path d="M33.3869 13.4025L31.6313 13.1048C31.475 12.6697 31.2984 12.2429 31.1031 11.8279L32.1369 10.3815C33.0364 9.11783 32.892 7.4111 31.7969 6.32675L29.6873 4.21683C29.091 3.62054 28.3005 3.29205 27.4617 3.29205C26.8011 3.29205 26.1694 3.49557 25.6393 3.87708L24.1875 4.91116C23.7384 4.69885 23.2828 4.51126 22.8241 4.34921L22.5338 2.62903C22.2784 1.1055 20.9715 0 19.4263 0H16.4457C14.9008 0 13.5939 1.1055 13.3391 2.62601L13.0339 4.41348C12.603 4.57086 12.1781 4.74966 11.762 4.94934L10.3365 3.92267C9.802 3.53787 9.16782 3.33463 8.50232 3.33463C7.65527 3.33463 6.86453 3.66367 6.27484 4.26132L4.16025 6.36905C3.06821 7.46109 2.92511 9.16644 3.82022 10.4238L4.87079 11.8998C4.67715 12.3165 4.50302 12.7452 4.34921 13.1828L2.62875 13.4731C1.1055 13.7288 0 15.0356 0 16.5806V19.5612C0 21.1061 1.1055 22.4129 2.62601 22.6681L4.41348 22.973C4.57086 23.4042 4.74994 23.8293 4.94934 24.2452L3.92651 25.6679C3.02701 26.9316 3.17148 28.6386 4.26654 29.7227L6.37619 31.8326C6.97247 32.4289 7.76294 32.7574 8.60175 32.7574C9.2623 32.7574 9.89401 32.5539 10.4238 32.1726L11.8998 31.1221C12.2877 31.3022 12.6898 31.4673 13.1026 31.6159L13.3951 33.3712C13.6508 34.8945 14.9576 36 16.5026 36H19.49C21.035 36 22.3421 34.8945 22.5972 33.3732L22.895 31.6173C23.33 31.461 23.7568 31.2844 24.1718 31.0891L25.6135 32.1196C26.148 32.5044 26.7822 32.7079 27.4477 32.7079C28.2862 32.7079 29.0767 32.3795 29.673 31.7832L31.7826 29.6732C32.8749 28.5812 33.0178 26.8759 32.1227 25.6185L31.0877 24.1653C31.2882 23.7406 31.4654 23.3141 31.6178 22.89L33.371 22.5978C34.8942 22.3421 35.9997 21.0352 35.9997 19.4903V16.5157C36.017 14.9691 34.9195 13.6607 33.3869 13.4025V13.4025ZM33.8904 19.4903C33.8904 20.0009 33.5251 20.4329 33.023 20.5172L30.6977 20.9048C30.2687 20.9762 29.9226 21.2789 29.7938 21.695C29.5873 22.3643 29.3036 23.0485 28.9512 23.7274C28.7518 24.1103 28.7836 24.5665 29.0341 24.9175L30.4044 26.8418C30.6999 27.2571 30.6524 27.8207 30.2912 28.1819L28.1816 30.2915C27.9808 30.4923 27.727 30.5986 27.4477 30.5986C27.2274 30.5986 27.0195 30.5327 26.8432 30.4058L24.9272 29.0363C24.5748 28.7834 24.1166 28.7515 23.7318 28.9528C23.0875 29.2901 22.4028 29.5738 21.6966 29.7955C21.2846 29.9246 20.9839 30.2695 20.9122 30.6942L20.5172 33.0219C20.4329 33.5253 20.0009 33.8906 19.49 33.8906H16.5026C15.9917 33.8906 15.5599 33.5253 15.4756 33.0233L15.0881 30.698C15.0172 30.2717 14.7173 29.9262 14.3053 29.796C13.6093 29.5763 12.9466 29.3038 12.3349 28.9861C12.1682 28.8995 11.9877 28.857 11.8081 28.857C11.5757 28.857 11.3445 28.9284 11.1465 29.0693L9.19611 30.4574C9.02032 30.584 8.82037 30.648 8.60175 30.648C8.32242 30.648 8.06863 30.542 7.86786 30.3409L5.75436 28.2277C5.39374 27.8707 5.34787 27.3087 5.64203 26.8954L7.00406 25.0008C7.26031 24.6451 7.29163 24.1837 7.08508 23.7956C6.73874 23.146 6.45172 22.4648 6.23172 21.7708C6.10153 21.3615 5.75793 21.0624 5.33496 20.9902L2.97784 20.5884C2.47467 20.5038 2.10938 20.0717 2.10938 19.5612V16.5806C2.10938 16.07 2.47467 15.6379 2.97867 15.5533L5.27536 15.1658C5.70465 15.0936 6.05045 14.7901 6.17816 14.3726C6.39487 13.6634 6.67364 12.9776 7.00681 12.3349C7.20511 11.9529 7.17325 11.4977 6.92358 11.1465L5.53876 9.20078C5.24295 8.78549 5.29047 8.22189 5.65054 7.86182L7.76733 5.75217L7.77502 5.7442C7.96536 5.55057 8.22354 5.444 8.50232 5.444C8.7226 5.444 8.93079 5.50992 9.10382 5.63461L11.0067 7.00433C11.3629 7.26086 11.8249 7.29163 12.2116 7.08508C12.8611 6.73874 13.5423 6.45172 14.2355 6.23199C14.6448 6.10208 14.9439 5.75903 15.0167 5.33496L15.4188 2.97784C15.5031 2.47467 15.9351 2.10938 16.446 2.10938H19.4266C19.9372 2.10938 20.3692 2.47467 20.4538 2.97867L20.8413 5.27618C20.9138 5.70575 21.2179 6.05127 21.6357 6.17871C22.3478 6.39514 23.0581 6.68738 23.7472 7.04773C24.1301 7.24768 24.5863 7.21637 24.939 6.96561L26.8676 5.59204C27.0431 5.46542 27.2431 5.40143 27.462 5.40143C27.741 5.40143 27.9948 5.50745 28.1959 5.7085L30.3091 7.82172C30.6697 8.17877 30.7159 8.74072 30.4198 9.15628L29.049 11.0742C28.7974 11.4269 28.7661 11.8845 28.9668 12.2679C29.3044 12.9122 29.5878 13.597 29.8098 14.3034C29.9391 14.7154 30.2838 15.0158 30.7084 15.0875L33.0342 15.4822L33.0362 15.4825C33.538 15.5668 33.8975 15.9925 33.8904 16.4949V19.4903Z" fill="white"/>
<path d="M18 11.0006C14.1405 11.0006 11.0006 14.1405 11.0006 18C11.0006 21.8595 14.1405 24.9994 18 24.9994C21.8595 24.9994 24.9994 21.8595 24.9994 18C24.9994 14.1405 21.8595 11.0006 18 11.0006ZM18 22.89C15.3037 22.89 13.11 20.6963 13.11 18C13.11 15.3037 15.3037 13.11 18 13.11C20.6963 13.11 22.89 15.3037 22.89 18C22.89 20.6963 20.6963 22.89 18 22.89Z" fill="white"/>
</svg>
