<svg width="74" height="74" viewBox="0 0 74 74" fill="none" xmlns="http://www.w3.org/2000/svg">
<mask id="path-1-outside-1" maskUnits="userSpaceOnUse" x="0" y="-0.00012207" width="74" height="75" fill="black">
<rect fill="white" y="-0.00012207" width="74" height="75"/>
<path fill-rule="evenodd" clip-rule="evenodd" d="M65 1.99988C65 1.44759 65.4477 0.999878 66 0.999878H72C72.5523 0.999878 73 1.44759 73 1.99988V7.99988C73 8.55216 72.5523 8.99988 72 8.99988H70V65H72C72.5523 65 73 65.4477 73 66V72C73 72.5523 72.5523 73 72 73H66C65.4477 73 65 72.5523 65 72V70H9V72C9 72.5523 8.55228 73 8 73H2C1.44772 73 1 72.5523 1 72V66C1 65.4477 1.44772 65 2 65H4V9H2C1.44772 9 1 8.55228 1 8V2C1 1.44772 1.44772 1 2 1H8C8.55228 1 9 1.44772 9 2V4H65V1.99988ZM6 9H8C8.55228 9 9 8.55228 9 8V6H65V7.99988C65 8.55216 65.4477 8.99988 66 8.99988H68V65H66C65.4477 65 65 65.4477 65 66V68H9V66C9 65.4477 8.55228 65 8 65H6V9Z"/>
</mask>
<path fill-rule="evenodd" clip-rule="evenodd" d="M65 1.99988C65 1.44759 65.4477 0.999878 66 0.999878H72C72.5523 0.999878 73 1.44759 73 1.99988V7.99988C73 8.55216 72.5523 8.99988 72 8.99988H70V65H72C72.5523 65 73 65.4477 73 66V72C73 72.5523 72.5523 73 72 73H66C65.4477 73 65 72.5523 65 72V70H9V72C9 72.5523 8.55228 73 8 73H2C1.44772 73 1 72.5523 1 72V66C1 65.4477 1.44772 65 2 65H4V9H2C1.44772 9 1 8.55228 1 8V2C1 1.44772 1.44772 1 2 1H8C8.55228 1 9 1.44772 9 2V4H65V1.99988ZM6 9H8C8.55228 9 9 8.55228 9 8V6H65V7.99988C65 8.55216 65.4477 8.99988 66 8.99988H68V65H66C65.4477 65 65 65.4477 65 66V68H9V66C9 65.4477 8.55228 65 8 65H6V9Z" fill="#F2AA18"/>
<path d="M70 8.99988V7.99988H69V8.99988H70ZM70 65H69V66H70V65ZM65 70H66V69H65V70ZM9 70V69H8V70H9ZM4 65V66H5V65H4ZM4 9H5V8H4V9ZM9 4H8V5H9V4ZM65 4V5H66V4H65ZM6 9V8H5V9H6ZM9 6V5H8V6H9ZM65 6H66V5H65V6ZM68 8.99988H69V7.99988H68V8.99988ZM68 65V66H69V65H68ZM65 68V69H66V68H65ZM9 68H8V69H9V68ZM6 65H5V66H6V65ZM66 -0.00012207C64.8954 -0.00012207 64 0.895308 64 1.99988H66V-0.00012207ZM72 -0.00012207H66V1.99988H72V-0.00012207ZM74 1.99988C74 0.895308 73.1046 -0.00012207 72 -0.00012207V1.99988H74ZM74 7.99988V1.99988H72V7.99988H74ZM72 9.99988C73.1046 9.99988 74 9.10445 74 7.99988H72V9.99988ZM70 9.99988H72V7.99988H70V9.99988ZM71 65V8.99988H69V65H71ZM72 64H70V66H72V64ZM74 66C74 64.8954 73.1046 64 72 64V66H74ZM74 72V66H72V72H74ZM72 74C73.1046 74 74 73.1046 74 72H72V74ZM66 74H72V72H66V74ZM64 72C64 73.1046 64.8954 74 66 74V72H64ZM64 70V72H66V70H64ZM9 71H65V69H9V71ZM10 72V70H8V72H10ZM8 74C9.10457 74 10 73.1046 10 72H8V74ZM2 74H8V72H2V74ZM0 72C0 73.1046 0.89543 74 2 74V72H0ZM0 66V72H2V66H0ZM2 64C0.89543 64 0 64.8954 0 66H2V64ZM4 64H2V66H4V64ZM3 9V65H5V9H3ZM4 8H2V10H4V8ZM2 8H0C0 9.10457 0.89543 10 2 10V8ZM2 8V2H0V8H2ZM2 2V0C0.895431 0 0 0.895431 0 2H2ZM2 2H8V0H2V2ZM8 2H10C10 0.89543 9.10457 0 8 0V2ZM8 2V4H10V2H8ZM65 3H9V5H65V3ZM64 1.99988V4H66V1.99988H64ZM8 8H6V10H8V8ZM8 8V10C9.10457 10 10 9.10457 10 8H8ZM8 6V8H10V6H8ZM65 5H9V7H65V5ZM66 7.99988V6H64V7.99988H66ZM66 7.99988H64C64 9.10445 64.8954 9.99988 66 9.99988V7.99988ZM68 7.99988H66V9.99988H68V7.99988ZM69 65V8.99988H67V65H69ZM66 66H68V64H66V66ZM66 66V64C64.8954 64 64 64.8954 64 66H66ZM66 68V66H64V68H66ZM9 69H65V67H9V69ZM8 66V68H10V66H8ZM8 66H10C10 64.8954 9.10457 64 8 64V66ZM6 66H8V64H6V66ZM5 9V65H7V9H5Z" fill="#171A1C" mask="url(#path-1-outside-1)"/>
</svg>
